<?xml version="1.0" encoding="utf-8"?>
<!-- Generator: Adobe Illustrator 22.0.1, SVG Export Plug-In . SVG Version: 6.00 Build 0)  -->
<svg version="1.1" id="Layer_1" xmlns="http://www.w3.org/2000/svg" xmlns:xlink="http://www.w3.org/1999/xlink" x="0px" y="0px"
	 viewBox="0 0 142.3 80" style="enable-background:new 0 0 142.3 80;" xml:space="preserve">
<style type="text/css">
	.st0{fill:#545454;}
</style>
<g>
	<path d="M3.8,0.5h2.7l3.8,9.6H7.9L7.1,7.9h-4l-0.8,2.2H0.1L3.8,0.5z M6.5,6.3L5,2.4L3.7,6.3H6.5z"/>
	<path class="st0" d="M12.7,6.5L15,6V6c0-0.7-0.4-1.2-1.2-1.2s-1.2,0.4-1.5,1.1l-1.7-0.4c0.5-1.2,1.6-2.2,3.3-2.2c1.9,0,3,1,3,2.7
		v4.1h-2V9.3c-0.5,0.6-1.2,1-2.1,1c-1.2,0-2.1-0.7-2.1-1.8C10.8,7.3,11.5,6.8,12.7,6.5z M13.4,8.9c0.6,0,1.2-0.3,1.5-0.8v-1
		l-1.6,0.4c-0.4,0.1-0.7,0.3-0.7,0.7C12.6,8.6,12.9,8.9,13.4,8.9z"/>
	<path d="M28.4,0.5c1.9,0,3,1.1,3,2.5c0,0.8-0.4,1.4-1.1,1.9C31.4,5.3,32,6.2,32,7.3c0,1.6-1.3,2.8-3.4,2.8h-4.4V0.5H28.4z
		 M26.4,2.2v2.2H28c0.7,0,1.2-0.5,1.2-1.1c0-0.6-0.5-1.1-1.2-1.1H26.4z M26.4,6v2.4h2.1c0.8,0,1.4-0.5,1.4-1.2
		c0-0.7-0.5-1.2-1.4-1.2H26.4z"/>
	<path class="st0" d="M33.2,0.5h2v3.4c0.5-0.5,1.1-0.7,1.9-0.7c1.8,0,3.1,1.4,3.1,3.5c0,2-1.3,3.5-3.1,3.5c-0.7,0-1.4-0.2-1.9-0.6
		v0.5h-2V0.5z M35.2,5.6v2.3c0.3,0.4,0.8,0.7,1.4,0.7c1,0,1.6-0.8,1.6-1.9c0-1.1-0.7-1.9-1.6-1.9C36,4.8,35.5,5.1,35.2,5.6z"/>
	<path d="M46.8,5.3c0-2.9,2-4.9,4.8-4.9c2.3,0,3.9,1.3,4.5,3.3l-2,0.5c-0.4-1.3-1.2-2-2.5-2c-1.6,0-2.7,1.3-2.7,3.1s1.1,3.1,2.7,3.1
		c1.3,0,2.1-0.8,2.5-2l2,0.5c-0.6,2-2.2,3.3-4.5,3.3C48.8,10.2,46.8,8.2,46.8,5.3z"/>
	<path class="st0" d="M61.9,7.4l1.7,0.3c-0.4,1.5-1.6,2.5-3.2,2.5c-2,0-3.5-1.5-3.5-3.5c0-2,1.5-3.5,3.5-3.5c1.6,0,2.8,1,3.2,2.5
		l-1.7,0.4c-0.2-0.8-0.7-1.2-1.4-1.2c-1,0-1.6,0.8-1.6,1.9c0,1.1,0.6,1.9,1.6,1.9C61.1,8.6,61.7,8.2,61.9,7.4z"/>
	<path d="M74.4,0.5c2.9,0,4.9,2.1,4.9,4.8s-2.1,4.8-5,4.8h-3.9V0.5H74.4z M72.6,2.3v5.9h1.7c1.7,0,2.9-1.3,2.9-3s-1.2-3-2.9-3H72.6z
		"/>
	<path class="st0" d="M80.2,6.7c0-2,1.4-3.5,3.1-3.5c0.7,0,1.4,0.2,1.9,0.6V0.5h2v9.6h-2V9.5c-0.5,0.5-1.1,0.7-1.9,0.7
		C81.6,10.2,80.2,8.8,80.2,6.7z M83.8,8.6c0.6,0,1.1-0.3,1.5-0.7V5.6c-0.3-0.5-0.8-0.7-1.5-0.7c-1,0-1.6,0.8-1.6,1.9
		C82.1,7.8,82.8,8.6,83.8,8.6z"/>
	<path d="M101.1,6.1h-4.4v2.2h4.8v1.7h-6.9V0.5h6.9v1.7h-4.7v2.1h4.4V6.1z"/>
	<path class="st0" d="M105.9,10.2c-2,0-3.6-1.5-3.6-3.4c0-2,1.4-3.5,3.4-3.5c2,0,3.3,1.5,3.3,3.3v0.5h-4.7c0.1,0.9,0.7,1.6,1.7,1.6
		c0.7,0,1.2-0.3,1.4-0.9l1.6,0.5C108.6,9.4,107.4,10.2,105.9,10.2z M104.3,5.9h2.8c-0.2-0.7-0.7-1.2-1.4-1.2
		C105.1,4.7,104.6,5.1,104.3,5.9z"/>
	<path d="M122.6,6.1h-4.4v4h-2.1V0.5h6.9v1.7h-4.7v2.2h4.4V6.1z"/>
	<path class="st0" d="M124.8,3.4v-1c0-1.5,0.9-2.4,2.5-2.4c0.5,0,0.9,0.1,1.3,0.2l-0.2,1.5c-0.3-0.1-0.5-0.1-0.7-0.1
		c-0.5,0-0.9,0.3-0.9,0.9v0.9h1.8V5h-1.8v5.1h-2V5h-1.1V3.4H124.8z"/>
	<path d="M8,23.4H5.1v-1.6H10v5.1H8v-1.1C7.4,26.6,6.4,27,5.2,27c-2.7,0-4.7-2.1-4.7-4.9c0-2.9,2.1-4.9,5-4.9c2.3,0,3.9,1.2,4.5,3.2
		l-2,0.5C7.6,19.6,6.7,19,5.4,19c-1.7,0-2.8,1.3-2.8,3.1c0,1.8,1.1,3.2,2.9,3.2C6.8,25.3,7.7,24.6,8,23.4L8,23.4z"/>
	<path class="st0" d="M16.1,26.2c-0.5,0.4-1.1,0.7-1.8,0.7c-1.8,0-3.1-1.4-3.1-3.4c0-1.9,1.3-3.4,3.1-3.4c0.7,0,1.3,0.2,1.8,0.6
		v-0.5h2v6.9c0,1.7-1.4,2.7-3.4,2.7c-1.3,0-2.5-0.5-3.4-1.3l1.2-1.1c0.7,0.6,1.3,0.9,2.2,0.9c1.1,0,1.4-0.6,1.4-1.2V26.2z
		 M14.7,25.3c0.6,0,1.1-0.3,1.4-0.7v-2.3c-0.3-0.4-0.8-0.7-1.4-0.7c-1,0-1.6,0.8-1.6,1.8C13,24.5,13.7,25.3,14.7,25.3z"/>
	<path d="M27.5,17.3v3.8h4v-3.8h2.1v9.6h-2.1v-4h-4v4h-2.1v-9.6H27.5z"/>
	<path class="st0" d="M35.2,17.3h2v3.5c0.4-0.5,1-0.8,1.8-0.8c1.4,0,2.5,1,2.5,2.5v4.4h-2v-4c0-0.8-0.4-1.2-1.2-1.2
		c-0.5,0-0.9,0.2-1.2,0.6v4.6h-2V17.3z"/>
	<path d="M51,17.3v9.6h-2.1v-9.6H51z"/>
	<path class="st0" d="M52.5,18c0-0.6,0.5-1.1,1.1-1.1c0.6,0,1.1,0.5,1.1,1.1c0,0.6-0.5,1.1-1.1,1.1C53,19.1,52.5,18.6,52.5,18z
		 M54.6,20.2v6.7h-2v-6.7H54.6z"/>
	<path d="M61.2,25.5l1.5-1.1c0.5,0.6,1.1,0.9,2,0.9c0.9,0,1.4-0.7,1.4-1.6v-6.3h2.1v6.3c0,2.1-1.2,3.4-3.5,3.4
		C63.2,27,62.1,26.4,61.2,25.5z"/>
	<path class="st0" d="M68.3,28.1c0.1,0.1,0.4,0.1,0.6,0.1c0.5,0,0.7-0.3,0.7-0.6v-7.4h2v7.6c0,1.1-0.9,1.9-2.3,1.9
		c-0.5,0-1-0.1-1.2-0.3L68.3,28.1z M70.7,16.9c0.6,0,1.1,0.5,1.1,1.1c0,0.6-0.5,1.1-1.1,1.1c-0.6,0-1.1-0.5-1.1-1.1
		C69.5,17.4,70,16.9,70.7,16.9z"/>
	<path d="M79,17.3h2.1l0,3.8l4.1-3.8h2.7L82.8,22l5.5,4.9h-3.1l-4.1-3.8l0,3.8H79V17.3z"/>
	<path class="st0" d="M88.8,17.3h2l0,5.4l2.6-2.6h2.4l-3.3,3.2l3.7,3.5h-2.7l-2.6-2.6l0,2.6h-2V17.3z"/>
	<path d="M102.5,17.3h2.1v7.8h4.8v1.7h-6.9V17.3z"/>
	<path class="st0" d="M112.6,17.3v9.6h-2v-9.6H112.6z"/>
	<path d="M3,36l0,7.6h-2v-9.6h3.4l2.6,7l2.5-7h3.3v9.6h-2.1l0-7.6L8,43.7H5.9L3,36z"/>
	<path class="st0" d="M14.7,37h2v0.7c0.4-0.5,1-0.8,1.8-0.8c0.9,0,1.6,0.4,2,1c0.5-0.6,1.2-1,2.2-1c1.5,0,2.5,1,2.5,2.5v4.4h-2v-4
		c0-0.8-0.4-1.2-1.1-1.2c-0.5,0-0.9,0.2-1.2,0.6c0,0.1,0,0.2,0,0.2v4.4h-2v-4c0-0.8-0.4-1.2-1.1-1.2c-0.5,0-0.9,0.2-1.2,0.6v4.6h-2
		V37z"/>
	<path d="M32.6,34.1h2.5l4.3,6.6l0-6.6h2v9.6h-2.5L34.5,37l0,6.7h-2V34.1z"/>
	<path class="st0" d="M42.9,37h2v0.7c0.4-0.5,1-0.8,1.8-0.8c1.4,0,2.5,1,2.5,2.5v4.4h-2v-4c0-0.8-0.4-1.2-1.2-1.2
		c-0.5,0-0.9,0.2-1.2,0.6v4.6h-2V37z"/>
	<path d="M61.1,34c2.8,0,4.9,2.1,4.9,4.9c0,2.8-2.1,5-5,5c-2.8,0-4.9-2.1-4.9-4.9C56.1,36.1,58.3,34,61.1,34z M61.1,35.8
		c-1.7,0-2.8,1.3-2.8,3.1s1.1,3.1,2.8,3.1c1.7,0,2.8-1.3,2.8-3.1S62.8,35.8,61.1,35.8z"/>
	<path class="st0" d="M70.5,36.9c2,0,3.5,1.5,3.5,3.5c0,1.9-1.5,3.5-3.5,3.5c-2,0-3.5-1.5-3.5-3.5C67,38.4,68.5,36.9,70.5,36.9z
		 M70.5,38.5c-0.9,0-1.6,0.8-1.6,1.9c0,1.1,0.6,1.9,1.6,1.9c0.9,0,1.6-0.8,1.6-1.9C72.1,39.3,71.4,38.5,70.5,38.5z"/>
	<path d="M88.1,34.1c2.1,0,3.4,1.3,3.4,3.1c0,1.7-1.4,3.1-3.5,3.1h-2v3.4h-2.1v-9.6H88.1z M86,35.9v2.8h1.9c0.9,0,1.5-0.6,1.5-1.4
		c0-0.8-0.6-1.4-1.5-1.4H86z"/>
	<path class="st0" d="M92.6,46.3V37h2v0.6c0.5-0.5,1.1-0.7,1.9-0.7c1.8,0,3.2,1.4,3.2,3.5c0,2-1.4,3.5-3.2,3.5
		c-0.7,0-1.4-0.2-1.9-0.6v3.1H92.6z M94.6,39.2v2.3c0.3,0.5,0.8,0.7,1.4,0.7c1,0,1.7-0.8,1.7-1.9c0-1.1-0.7-1.9-1.7-1.9
		C95.4,38.5,94.9,38.8,94.6,39.2z"/>
	<path d="M111.3,34c2.8,0,4.9,2.1,4.9,4.9c0,2.5-1.7,4.5-4.1,4.9v0.1c0,0.5,0.5,0.9,1,0.9c0.4,0,0.7-0.1,1-0.3l1,1.2
		c-0.5,0.4-1.2,0.6-2,0.6c-1.6,0-2.7-1-2.7-2.4v-0.1c-2.4-0.4-4.1-2.3-4.1-4.8C106.3,36.1,108.4,34,111.3,34z M111.2,35.8
		c-1.7,0-2.8,1.3-2.8,3.1s1.1,3.1,2.8,3.1c1.7,0,2.8-1.3,2.8-3.1S112.9,35.8,111.2,35.8z"/>
	<path class="st0" d="M122.1,43.1c-0.5,0.5-1.1,0.7-1.9,0.7c-1.8,0-3.1-1.4-3.1-3.5c0-2,1.4-3.5,3.1-3.5c0.7,0,1.4,0.2,1.9,0.6V37h2
		v9.3h-2V43.1z M120.7,42.2c0.6,0,1.1-0.3,1.5-0.7v-2.3c-0.3-0.5-0.8-0.8-1.5-0.8c-1,0-1.6,0.8-1.6,1.9
		C119,41.4,119.7,42.2,120.7,42.2z"/>
	<path d="M6.7,60.5l-2.8-3.6H3v3.6H0.9v-9.6h4c2,0,3.3,1.3,3.3,3c0,1.2-0.8,2.2-2,2.7l3.2,3.9H6.7z M3,52.7v2.6h1.6
		C5.4,55.3,6,54.7,6,54c0-0.8-0.6-1.3-1.4-1.3H3z"/>
	<path class="st0" d="M12,53.8v0.8c0.3-0.5,1-0.9,1.8-0.9c0.2,0,0.3,0,0.4,0.1l-0.1,1.8c-0.2-0.1-0.4-0.1-0.7-0.1
		c-0.7,0-1.3,0.3-1.5,0.9v4.3h-2v-6.7H12z"/>
	<path d="M24.7,59c1.1,0,1.7-0.5,1.7-1.2c0-0.6-0.3-0.9-1.4-1.1l-1.5-0.2c-2.1-0.3-2.9-1.3-2.9-2.7c0-1.6,1.5-3,3.6-3
		c2.1,0,3.6,1.1,4.2,2.8l-2,0.5c-0.4-1-1.1-1.6-2.3-1.6c-0.8,0-1.5,0.5-1.5,1.1c0,0.6,0.5,0.9,1.4,1.1l1.5,0.2c2.3,0.3,3,1.2,3,2.7
		c0,1.7-1.5,3.1-3.9,3.1c-2.2,0-3.8-1-4.3-2.8l2-0.4C22.7,58.4,23.6,59,24.7,59z"/>
	<path class="st0" d="M32.5,59.4c0.6,0,1-0.3,1-0.7c0-0.3-0.3-0.6-0.9-0.7l-1.1-0.2c-1.4-0.2-2.1-1-2.1-2c0-1.3,1.1-2.2,2.7-2.2
		c1.4,0,2.6,0.7,3.1,1.8L33.6,56c-0.3-0.6-0.8-1-1.5-1c-0.5,0-0.9,0.3-0.9,0.6c0,0.3,0.3,0.5,0.8,0.6l1.1,0.2c1.6,0.3,2.2,0.9,2.2,2
		c0,1.3-1.1,2.3-2.8,2.3c-1.4,0-2.7-0.7-3.2-1.8l1.6-0.5C31.2,59.1,31.8,59.4,32.5,59.4z"/>
	<path d="M50.1,50.9v1.7h-3.2v7.8h-2.1v-7.8h-3.2v-1.7H50.1z"/>
	<path class="st0" d="M51.5,55.4h-1.2v-1.6h1.2v-1.5l2-0.7v2.2h1.9v1.6h-1.9V58c0,0.6,0.3,0.9,1,0.9c0.3,0,0.6-0.1,0.8-0.2l0.2,1.5
		c-0.3,0.2-0.9,0.3-1.5,0.3c-1.4,0-2.4-0.8-2.4-2.2V55.4z"/>
	<path d="M68.4,56.4v-5.5h2.1v5.5c0,2.7-1.7,4.2-4.3,4.2c-2.6,0-4.2-1.5-4.2-4.2v-5.5h2.1v5.5c0,1.5,0.8,2.4,2.1,2.4
		S68.4,57.9,68.4,56.4z"/>
	<path class="st0" d="M74,53.8v4c0,0.8,0.4,1.2,1.1,1.2c0.5,0,0.9-0.2,1.2-0.6v-4.6h2v6.7h-2v-0.7c-0.4,0.5-1,0.8-1.8,0.8
		c-1.4,0-2.5-1-2.5-2.5v-4.4H74z"/>
	<path d="M91.3,60.5h-2.7l-3.8-9.6h2.3l2.9,7.7l2.8-7.7H95L91.3,60.5z"/>
	<path class="st0" d="M100.1,60.5h-2.3l-2.7-6.7h2.2l1.7,4.7l1.7-4.7h2.1L100.1,60.5z"/>
	<path d="M122,58.4l1.7-7.5h2.1l-2.3,9.6h-2.9l-1.9-7.1l-1.9,7.1h-2.9l-2.3-9.6h2.2l1.6,7.4l2.1-7.4h2.3L122,58.4z"/>
	<path class="st0" d="M134,58.5l1-4.7h1.9l-1.5,6.7h-2.5l-1.3-4.6l-1.2,4.6h-2.5l-1.5-6.7h2l1,4.8l1.4-4.8h2L134,58.5z"/>
	<path d="M3.8,72.3l-3.5-4.6h2.6L5,70.6l2.1-2.9h2.4l-3.4,4.4l3.8,5.1H7.4l-2.5-3.4l-2.5,3.4H0L3.8,72.3z"/>
	<path class="st0" d="M12.6,73.9l-2.7-3.3h2.4l1.4,1.9l1.4-1.9h2.2l-2.6,3.2l2.8,3.5h-2.4l-1.6-2.1l-1.6,2.1H9.9L12.6,73.9z"/>
	<path d="M29.4,74v3.3h-2.1v-3.2l-3.9-6.3h2.4l2.7,4.4l2.7-4.4h2.3L29.4,74z"/>
	<path class="st0" d="M35.6,77.2l-2.8-6.6H35l1.7,4.3l1.9-4.3h2l-4.2,9.3h-2L35.6,77.2z"/>
	<path d="M54.3,69.2l-5,6.4h5.3v1.7h-8v-1.4l5.1-6.4h-5v-1.7h7.7V69.2z"/>
	<path class="st0" d="M61.1,77.3h-6V76l3.4-3.8h-3.4v-1.6H61v1.4l-3.4,3.7h3.5V77.3z"/>
</g>
</svg>
