<?xml version="1.0" encoding="utf-8"?>
<!-- Generator: Adobe Illustrator 22.0.1, SVG Export Plug-In . SVG Version: 6.00 Build 0)  -->
<svg version="1.1" id="Layer_1" xmlns="http://www.w3.org/2000/svg" xmlns:xlink="http://www.w3.org/1999/xlink" x="0px" y="0px"
	 viewBox="0 0 596 674.3" style="enable-background:new 0 0 596 674.3;" xml:space="preserve">
<style type="text/css">
	.st0{fill:#63676B;}
	.st1{fill:#525559;}
	.st2{fill:#434447;}
	.st3{fill:#323335;}
	.st4{fill:#212224;}
	.st5{fill:#131314;}
</style>
<g>
	<path class="st0" d="M44.6,0.2c21.6,0,36.6,16.5,36.6,38s-15,38.1-36.7,38.1C23,76.2,8,59.7,8,38.3S23,0.2,44.6,0.2z M44.6,5.3
		c-18.2,0-30.8,14.2-30.8,33s12.6,33,30.8,33s30.8-14.2,30.8-33S62.8,5.3,44.6,5.3z"/>
	<path class="st0" d="M91.9,1.3h5.3v31.8c4.2-4.9,9.8-7.6,16.4-7.6c12.8,0,22.6,10.1,22.6,25.2c0,14.2-9.8,25.1-22.6,25.1
		c-6.4,0-12.3-2.3-16.4-6.8v6h-5.3V1.3z M97.2,38.7v24.1c3.3,5.3,8.8,8.6,15.9,8.6c10.6,0,17.8-9,17.8-20.7
		c0-11.7-7.2-20.7-17.8-20.7C106.1,30.1,100.5,33.6,97.2,38.7z"/>
	<path class="st0" d="M133.2,88.9c1.6,0.8,3.6,1.4,5.7,1.4c4.1,0,6.7-2.3,6.7-7.5V26.5h5.3v57c0,7.5-5.2,11.4-11.7,11.4
		c-2.5,0-5.4-0.8-7.1-1.7L133.2,88.9z M148,7.2c2.1,0,3.8,1.9,3.8,3.8s-1.8,3.8-3.8,3.8c-2.2,0-4.1-1.9-4.1-3.8S145.8,7.2,148,7.2z"
		/>
	<path class="st0" d="M160,50.6c0-14.3,9.7-25.1,22.6-25.1c12.4,0,21.6,9.9,21.6,22.8v2h-39v0.3c0,11.7,7.3,20.7,18.1,20.7
		c7.8-0.1,13.8-4.5,16-11.2l4.8,1.4c-2.8,8.6-10.6,14.4-20.8,14.4C170,75.9,160,65.2,160,50.6z M165.5,46.1h33.4
		c-0.8-9.4-7.2-16-16.3-16C173.5,30.1,167,36.6,165.5,46.1z"/>
	<path class="st0" d="M250.9,57.9l4.9,1.1c-3,10-10.9,16.7-21.6,16.7c-13.3,0.1-23.3-10.7-23.3-24.9c0-14.3,10-25.3,23.3-25.3
		c10.6,0,18.6,6.7,21.7,16.7l-5.1,1.2c-2.2-8.1-8.4-13.5-16.6-13.5c-10.7,0-18,9-18,20.6c0,11.6,7.3,20.6,18,20.6
		C242.4,71.2,248.8,65.8,250.9,57.9z"/>
	<path class="st0" d="M267.4,31.1h-9.1v-4.6h9.1V16.2l5.3-2.3v12.7h15.4v4.6h-15.4v30.7c0,6.7,3.7,9.8,9.1,9.8
		c2.4,0,4.5-0.4,6.5-1.4l1.4,4.1c-2.2,1-5.1,1.8-8.1,1.8c-8,0-14.2-4.3-14.2-13.6L267.4,31.1L267.4,31.1z"/>
	<path class="st0" d="M294.6,11c0-2,1.8-3.8,4.1-3.8c2.1,0,3.8,1.9,3.8,3.8s-1.8,3.8-3.8,3.8C296.4,15,294.6,13.1,294.6,11z
		 M301.1,26.5V75h-5.3V26.5H301.1z"/>
	<path class="st0" d="M333.6,75h-6.4l-20-48.5h5.6l17.7,43.7l17.6-43.7h5.5L333.6,75z"/>
	<path class="st0" d="M355,50.6c0-14.3,9.7-25.1,22.6-25.1c12.4,0,21.6,9.9,21.6,22.8v2h-39v0.3c0,11.7,7.3,20.7,18.1,20.7
		c7.8-0.1,13.8-4.5,16-11.2l4.8,1.4c-2.8,8.6-10.6,14.4-20.8,14.4C365,75.9,355,65.2,355,50.6z M360.5,46.1h33.4
		c-0.8-9.4-7.2-16-16.3-16S362.1,36.6,360.5,46.1z"/>
	<path class="st0" d="M408.9,26.5h5.3v7.1c3.2-5.1,8.4-8.1,15.4-8.1c10.6,0,18.3,6.5,18.3,18.6v31h-5.3V45.3
		c0-10.2-5.4-15.2-13.6-15.2c-7.4,0-12.4,3.6-14.9,9.5V75h-5.3V26.5z"/>
	<path class="st0" d="M457.3,50.6c0-14.3,9.7-25.1,22.6-25.1c12.4,0,21.6,9.9,21.6,22.8v2h-39v0.3c0,11.7,7.3,20.7,18.1,20.7
		c7.8-0.1,13.8-4.5,16-11.2l4.8,1.4c-2.8,8.6-10.6,14.4-20.8,14.4C467.2,75.9,457.3,65.2,457.3,50.6z M462.7,46.1h33.4
		c-0.8-9.4-7.2-16-16.3-16S464.3,36.6,462.7,46.1z"/>
	<path class="st0" d="M527.2,71.7c7.9,0,12.7-4.3,12.7-10.1c0-4.8-2.8-7.8-11.9-9l-5.8-0.8c-10.1-1.5-13.7-6.2-13.7-12.3
		c0-7.6,6.5-13.7,16.3-13.7c8.9,0,16.1,5,19.3,12.4l-4.7,2.1c-2.7-6.1-7.8-10.2-14.9-10.2c-7,0-11.3,4.1-11.3,9c0,4.1,2.8,7,9.8,8
		l6.8,1c11.2,1.8,15.1,5.8,15.1,13.2c0,8.6-7.2,14.7-17.5,14.7c-9.3,0-17.4-4.9-20.6-12.5l4.8-1.9C514.4,68.2,520.4,71.7,527.2,71.7
		z"/>
	<path class="st0" d="M570.3,71.7c7.9,0,12.7-4.3,12.7-10.1c0-4.8-2.8-7.8-11.9-9l-5.8-0.8c-10.1-1.5-13.7-6.2-13.7-12.3
		c0-7.6,6.5-13.7,16.3-13.7c8.9,0,16.1,5,19.3,12.4l-4.7,2.1c-2.7-6.1-7.8-10.2-14.9-10.2c-7,0-11.3,4.1-11.3,9c0,4.1,2.8,7,9.8,8
		l6.8,1c11.2,1.8,15.1,5.8,15.1,13.2c0,8.6-7.2,14.7-17.5,14.7c-9.3,0-17.4-4.9-20.6-12.5l4.8-1.9C557.4,68.2,563.3,71.7,570.3,71.7
		z"/>
</g>
<g>
	<path class="st1" d="M60.7,195l3.1-9.9c-7.3,7.4-16,11-26.3,11C19.2,196.1,8,182.6,8,163.9c0-22.3,16.2-44.4,40.3-44.4
		c16.3,0,28.3,10.4,30.2,24.7l-5.4,1.2c-2-12.7-11.7-20.9-25.5-20.9c-19.4,0-34.1,17.9-34.1,38.4c0,16.9,9.8,28.3,25.5,28.3
		c11.4,0,20.8-6.1,27.8-15.8l3.6-11.4H41.8l2.5-5.1h33.4l-11.4,36.2h-5.5V195z"/>
	<path class="st1" d="M99.6,146.1l-1.6,5.2c3.7-3.9,8.3-6.3,12.9-6.3c2.5,0,4.1,0.4,5.4,0.9l-1.6,4.7c-1-0.4-3.2-0.7-5.3-0.7
		c-5.7,0-10.7,3.7-13.8,9.4l-10.9,36h-5.2l15-49.1H99.6z"/>
	<path class="st1" d="M128.1,168.8l20.8-3.9c2.3-8.9-2.5-15.2-11.6-15.2c-6.4,0-11.2,3.1-15.5,9.9l-4.1-2.8
		c5.1-7.7,12.3-11.5,20-11.5c13,0,19.6,9.4,15.9,21.6l-8.7,28.4h-5l1.7-5.5c-5,4.2-10.5,6.4-15.2,6.4c-9.2,0-14.4-4.4-14.4-12.1
		C112,175.8,118.4,170.5,128.1,168.8z M127,191.8c5.5,0,10.9-2.9,16-7.5l4.6-15.2l-17.7,3.5c-9.1,1.8-13,5.3-13,11.4
		C117.1,188.8,121.1,191.8,127,191.8z"/>
	<path class="st1" d="M174.8,195h-6.3l-4.8-48.9h5.1l4.1,44.1l29.8-44.1h5.8L174.8,195z"/>
	<path class="st1" d="M220.2,146.1l-15,48.9h-5.2l15-48.9H220.2z M225.8,130.3c0,2.2-1.9,4.2-4.1,4.2c-2.5,0-3.7-2-3.7-3.7
		c0-2.2,1.9-4.2,4.1-4.2C224.5,126.6,225.8,128.5,225.8,130.3z"/>
	<path class="st1" d="M235.4,150.7h-9.6l1.4-4.6h9.6l3.2-10.4l6-2.3l-3.9,12.8h14.7l-1.4,4.6h-14.8l-9.1,29.6
		c-2.6,8.3,2.1,10.9,6.7,10.9c2.1,0,3.8-0.1,5.8-0.7l0.2,4.3c-1.7,0.6-4.7,1-7.4,1c-8.8,0-13.6-5.6-10.4-16L235.4,150.7z"/>
	<path class="st1" d="M268.7,168.8l20.8-3.9c2.3-8.9-2.5-15.2-11.6-15.2c-6.4,0-11.2,3.1-15.5,9.9l-4.1-2.8
		c5.1-7.7,12.3-11.5,20-11.5c13,0,19.6,9.4,15.9,21.6l-8.7,28.4h-5.1l1.7-5.5c-5,4.2-10.5,6.4-15.2,6.4c-9.2,0-14.4-4.4-14.4-12.1
		C252.5,175.8,259,170.5,268.7,168.8z M267.6,191.8c5.5,0,10.9-2.9,16-7.5l4.6-15.2l-17.7,3.5c-9.1,1.8-13,5.3-13,11.4
		C257.7,188.8,261.6,191.8,267.6,191.8z"/>
	<path class="st1" d="M313.4,150.7h-9.6l1.4-4.6h9.6l3.2-10.4l6-2.3l-3.9,12.8h14.7l-1.4,4.6h-14.8l-9.1,29.6
		c-2.6,8.3,2.1,10.9,6.7,10.9c2.1,0,3.8-0.1,5.8-0.7l0.2,4.3c-1.7,0.6-4.7,1-7.4,1c-8.8,0-13.6-5.6-10.4-16L313.4,150.7z"/>
	<path class="st1" d="M348.5,146.1l-15,48.9h-5.2l15-48.9H348.5z M354,130.3c0,2.2-1.9,4.2-4.1,4.2c-2.5,0-3.7-2-3.7-3.7
		c0-2.2,1.9-4.2,4.1-4.2C352.6,126.6,354,128.5,354,130.3z"/>
	<path class="st1" d="M377.9,145.2c11.8,0,19.8,8.6,19.8,20.7c0,14.8-11.5,29.8-27.3,29.8c-11.5,0-20.1-8-20.1-20.7
		C350.3,160.2,361.9,145.2,377.9,145.2z M377,149.7c-12.4,0-21.6,12.7-21.6,25c0,10.5,6.7,16.3,15.5,16.3
		c12.6,0,21.7-13.1,21.7-24.9C392.6,156.2,386.4,149.7,377,149.7z"/>
	<path class="st1" d="M415.1,146.1h5.2l-2,6.5c4.2-4.6,9.6-7.6,15.4-7.6c11,0,17.7,8.3,13.7,21.3l-8.7,28.6h-5.2l8.9-29.2
		c3.5-11.5-2.5-16.2-9.7-16.2c-7.2,0-12.8,4.2-16.5,10.2L405.3,195H400L415.1,146.1z"/>
	<path class="st1" d="M468.9,168.8l20.8-3.9c2.3-8.9-2.5-15.2-11.6-15.2c-6.4,0-11.2,3.1-15.5,9.9l-4.1-2.8
		c5.1-7.7,12.3-11.5,20-11.5c13,0,19.6,9.4,15.9,21.6l-8.7,28.4h-5l1.7-5.5c-5,4.2-10.5,6.4-15.2,6.4c-9.2,0-14.4-4.4-14.4-12.1
		C452.8,175.8,459.2,170.5,468.9,168.8z M467.9,191.8c5.5,0,10.9-2.9,16-7.5l4.6-15.2l-17.7,3.5c-9.1,1.8-13,5.3-13,11.4
		C457.9,188.8,461.8,191.8,467.9,191.8z"/>
	<path class="st1" d="M526.1,120.7L503.3,195h-5.2l22.8-74.4C520.9,120.7,526.1,120.7,526.1,120.7z"/>
	<path class="st1" d="M544.1,120.7L521.3,195h-5.2l22.8-74.4C538.9,120.7,544.1,120.7,544.1,120.7z"/>
	<path class="st1" d="M548.1,194l-5.4-47.9h5.2l4.5,42l29.9-42h5.7l-50.3,70.2h-5.8L548.1,194z"/>
</g>
<g>
	<path class="st2" d="M17,239.3v72.3H8v-72.3L17,239.3L17,239.3z"/>
	<path class="st2" d="M29,262.2h8.4v5.9c3.2-4.5,8-7,14.8-7c10.7,0,18.6,7.3,18.6,18.7v31.7h-8.4v-30.2c0-8.1-4.4-13.1-12-13.1
		c-5.8,0-10.3,2.4-12.9,7.4v36H29C29,311.5,29,262.2,29,262.2z"/>
	<path class="st2" d="M83.9,269.4h-8.7v-7.2h8.7v-10.6l8.4-3.6v14.3h14.8v7.2H92.4v27.7c0,5.3,3,8.3,8.3,8.3c2.1,0,4.4-0.5,6.6-1.5
		l1.5,6.6c-2.1,1.1-5.2,2.1-8.8,2.1c-9.1,0-15.9-5.1-15.9-14.7v-28.6L83.9,269.4L83.9,269.4z"/>
	<path class="st2" d="M133.9,312.7c-14,0-24.4-11-24.4-25.7c0-14.7,10.1-25.7,23.6-25.7c13,0,22.7,10.4,22.7,23.8v2.5h-38.1
		c0.3,10.3,6.8,17.9,16.2,17.9c6.8,0.1,11.7-3.3,14-9.4l7.6,2.6C152.4,307.2,144.1,312.7,133.9,312.7z M118.2,281.5h28.9
		c-1.1-7.9-6.6-13.4-14-13.4C125.3,268.1,119.9,273.4,118.2,281.5z"/>
	<path class="st2" d="M172.5,262.2v7.2c2.9-5.2,7.7-8.2,13.9-8.2c0.9,0,1.8,0.1,2.5,0.3l-0.7,7.9c-0.9-0.2-1.7-0.3-2.5-0.3
		c-6.3,0-11.5,3.4-13.2,10.1v32.5h-8.4v-49.4L172.5,262.2L172.5,262.2z"/>
	<path class="st2" d="M229.3,293.8l7.9,1.5c-3.1,10.7-11.4,17.5-22.7,17.5c-14,0-24.4-11.1-24.4-25.7c0-14.6,10.4-25.7,24.4-25.7
		c11.1,0,19.7,6.2,22.7,17.5l-7.9,1.5c-2.2-7.6-7.5-11.8-14.7-11.8c-9.7,0-16.2,7.9-16.2,18.6c0,10.6,6.6,18.5,16.2,18.5
		C221.8,305.5,227.2,301.5,229.3,293.8z"/>
	<path class="st2" d="M266.9,261.2c14,0,24.7,11,24.7,25.7c0,14.5-10.6,25.7-24.7,25.7c-14.1,0-24.7-11-24.7-25.7
		C242.3,272.5,252.8,261.2,266.9,261.2z M266.9,268.4c-9.8,0-16.3,7.9-16.3,18.6s6.6,18.5,16.3,18.5c9.6,0,16.3-7.8,16.3-18.5
		S276.5,268.4,266.9,268.4z"/>
	<path class="st2" d="M308.3,239.3v72.3h-8.4v-72.3L308.3,239.3L308.3,239.3z"/>
	<path class="st2" d="M327.2,239.3v72.3h-8.4v-72.3L327.2,239.3L327.2,239.3z"/>
	<path class="st2" d="M359.9,312.7c-14,0-24.4-11-24.4-25.7c0-14.7,10.1-25.7,23.6-25.7c13,0,22.7,10.4,22.7,23.8v2.5h-38.1
		c0.3,10.3,6.8,17.9,16.2,17.9c6.8,0.1,11.7-3.3,14-9.4l7.6,2.6C378.4,307.2,370.1,312.7,359.9,312.7z M344.2,281.5h28.9
		c-1.1-7.9-6.6-13.4-14-13.4C351.4,268.1,346,273.4,344.2,281.5z"/>
	<path class="st2" d="M426.4,305.9c-4.2,4.1-9.3,6.6-15.4,6.6c-13.4,0-23.5-10.7-23.5-25.7c0-14.3,10.1-25.5,23.5-25.5
		c6,0,11.2,2.3,15.4,6v-5h8.4v51.7c0,11.8-9.1,18.6-21.5,18.6c-9.2,0-17.2-4.1-23.1-9.7l5.6-5.3c5.3,4.7,10.6,7.7,17.5,7.7
		c8.5,0,13.1-4.6,13.1-11.9L426.4,305.9L426.4,305.9z M411.9,305.3c6.3,0,11.3-3,14.5-7.5v-21.9c-3.1-4.6-8-7.6-14.5-7.6
		c-9.7,0-16.1,8-16.1,18.4C395.8,297.3,402.1,305.3,411.9,305.3z"/>
	<path class="st2" d="M444,246.4c0-2.9,2.6-5.5,5.7-5.5c3,0,5.7,2.6,5.7,5.5c0,3.1-2.7,5.7-5.7,5.7C446.6,252.1,444,249.5,444,246.4
		z M453.9,262.2v49.4h-8.4v-49.4H453.9z"/>
	<path class="st2" d="M476.2,285.1l18.4-4.5c0-7.6-4.4-12.4-12.3-12.4c-6.9,0-10.9,3.4-13.4,10.3l-7.6-2.2
		c3.1-9.4,10.9-15.2,21.2-15.2c11.9,0,20.5,7,20.5,18.3v32.1h-8.2v-7c-4.2,5-10,7.9-17.2,7.9c-8.7,0-15.3-5.2-15.3-13.2
		C462.2,291.3,467.8,287.2,476.2,285.1z M478.9,305.8c6.8,0,11.9-3.2,15.7-8.3V287l-16.5,4.2c-4.2,1-7.8,3.7-7.8,7.7
		C470.3,303.2,473.5,305.8,478.9,305.8z"/>
	<path class="st2" d="M516.3,269.4h-8.7v-7.2h8.7v-10.6l8.4-3.6v14.3h14.8v7.2h-14.8v27.7c0,5.3,3,8.3,8.3,8.3
		c2.1,0,4.4-0.5,6.6-1.5l1.5,6.6c-2.1,1.1-5.2,2.1-8.8,2.1c-9.1,0-15.9-5.1-15.9-14.7L516.3,269.4L516.3,269.4z"/>
	<path class="st2" d="M566.1,312.7c-14,0-24.4-11-24.4-25.7c0-14.7,10.1-25.7,23.6-25.7c13,0,22.7,10.4,22.7,23.8v2.5h-38.1
		c0.3,10.3,6.8,17.9,16.2,17.9c6.8,0.1,11.7-3.3,14-9.4l7.6,2.6C584.6,307.2,576.4,312.7,566.1,312.7z M550.4,281.5h28.9
		c-1.1-7.9-6.6-13.4-14-13.4C557.7,268.1,552.1,273.4,550.4,281.5z"/>
</g>
<g>
	<path class="st3" d="M30.2,359.6h9l-19.8,64.7h37.5l-2.4,7.8H8L30.2,359.6z"/>
	<path class="st3" d="M84.9,433.1c-12.1,0-21.4-8.5-21.4-22.2c0-15.7,11.4-29.3,26.2-29.3c11.9,0,19.3,8.8,19.5,20
		c0,2-0.2,4.3-0.8,6.4H71.2c-0.1,0.7-0.1,1.5-0.1,2.2c0,10.4,5.8,15.8,14.3,15.8c5.4,0,10.1-2.8,13.4-7.8l6.6,3.3
		C101,428.8,93.3,433.1,84.9,433.1z M72.6,401.9h28.5v-0.4c0-8.3-5.1-13-12.2-13C81.2,388.5,75.2,394.5,72.6,401.9z"/>
	<path class="st3" d="M147.4,428.1c-4.3,3-8.8,4.9-13.5,4.9c-12.1,0-19.2-8.8-19.2-21.3c0-15.7,12.2-30,28.2-30
		c8,0,13.1,3.4,16.4,7.7l2.1-6.8h8.3l-16.7,54.9c-3.2,10.4-10.9,15.7-20.6,15.7c-9.6,0-16.5-4.4-22.9-11.6l6.3-5.3
		c5.3,6.2,9.8,9.5,17.1,9.5c6.3,0,10.4-3.6,12.4-10L147.4,428.1z M135.9,425.9c5.4,0,10.3-2.5,14-6.3l6.7-21.5c-2.2-5.2-7.2-9-14-9
		c-11.2,0-19.7,10.5-19.7,22.7C122.8,420.4,127.5,425.9,135.9,425.9z"/>
	<path class="st3" d="M189.2,382.6L174,432.1h-8.3l15.1-49.5H189.2z M183.9,367.5c0-3.3,3-6.2,6.3-6.2c2.7,0,4.9,2.3,4.9,5
		c0,3-3,6.2-6.4,6.2C185.9,372.5,183.9,370.4,183.9,367.5z"/>
	<path class="st3" d="M201.6,389.8h-8.6l2.2-7.2h8.6l3.3-10.7l9.4-3.6l-4.4,14.3h14.5l-2.2,7.2h-14.5l-8.3,27.1
		c-2,6.3,1.5,8.9,6,8.9c1.8,0,3.8-0.3,5.9-0.9l0.1,6.6c-2.1,0.8-5.1,1.6-8.4,1.6c-8.6,0-15.1-5.6-11.6-17L201.6,389.8z"/>
	<path class="st3" d="M241.6,382.6l-15.1,49.5h-8.3l15.1-49.5H241.6z M236.3,367.5c0-3.3,3-6.2,6.3-6.2c2.7,0,4.9,2.3,4.9,5
		c0,3-3,6.2-6.4,6.2C238.3,372.5,236.3,370.4,236.3,367.5z"/>
	<path class="st3" d="M253.2,382.6h8.3l-1.6,5.3c3.7-4,8.6-6.2,14-6.2c6.4,0,12,3.3,14,8.9c4.7-5.6,11-8.9,18.2-8.9
		c11.5,0,17.9,9,14.1,21.2l-9,29.2H303l9-29.4c2.6-8.4-0.6-14-8.7-14c-5.6,0-10.5,2.8-14.4,8.4c0,1.9-0.4,3.8-1,5.9l-9,29.2h-8.4
		l9-29.4c2.8-9-1.7-14-8.6-14c-5.4,0-10,2.6-13.6,7.7l-11,35.9h-8.3L253.2,382.6z"/>
	<path class="st3" d="M345.8,382.6l-15,49.5h-8.3l15.1-49.5L345.8,382.6L345.8,382.6z M340.5,367.5c0-3.3,3-6.2,6.3-6.2
		c2.7,0,4.9,2.3,4.9,5c0,3-3,6.2-6.4,6.2C342.5,372.5,340.5,370.4,340.5,367.5z"/>
	<path class="st3" d="M376.1,432.1H337l1.9-6.1l38-36.4h-26.7l2.2-7.1h37.1l-1.9,6.1l-37.9,36.4h28.7L376.1,432.1z"/>
	<path class="st3" d="M401.6,405.3l20.5-4c1.6-8.1-3.5-12.8-10.7-12.8c-5.9,0-10.1,2.5-14.3,8.8l-6.8-3.2
		c5.5-8.3,12.9-12.6,21.8-12.6c12.2,0,21.4,8.8,17.2,22.6l-8.6,28h-8.1l1.6-5.2c-4.3,3.7-9.4,6.1-14.7,6.1
		c-8.4,0-14.3-4.3-14.3-12.3C385.4,413.5,390.9,407.4,401.6,405.3z M401.9,426.5c5.5,0,10.4-2.8,14.7-6.9l3.6-12l-16.5,3.5
		c-6.7,1.5-10.4,4-10.4,9C393.4,423.9,396.3,426.5,401.9,426.5z"/>
	<path class="st3" d="M446.6,389.8H438l2.2-7.2h8.6L452,372l9.4-3.6l-4.4,14.3h14.5l-2.2,7.2h-14.5l-8.3,27.1c-2,6.3,1.5,8.9,6,8.9
		c1.8,0,3.8-0.3,5.9-0.9l0.1,6.6c-2.1,0.8-5.1,1.6-8.4,1.6c-8.6,0-15.1-5.6-11.6-17L446.6,389.8z"/>
	<path class="st3" d="M486.6,382.6l-15.1,49.5h-8.3l15.1-49.5H486.6z M481.3,367.5c0-3.3,3-6.2,6.3-6.2c2.7,0,4.9,2.3,4.9,5
		c0,3-3,6.2-6.4,6.2C483.2,372.5,481.3,370.4,481.3,367.5z"/>
	<path class="st3" d="M515.1,381.6c12.4,0,20.8,9,20.8,21.1c0,14.9-12.1,30.4-28,30.4c-12.2,0-21-8.4-21-21.1
		C486.9,397.1,498.7,381.6,515.1,381.6z M514.2,388.8c-10.9,0-19.1,11.5-19.1,22.9c0,9.3,5.8,14.1,13.3,14.1
		c10.9,0,19.2-11.9,19.2-22.7C527.7,394.5,522.1,388.8,514.2,388.8z"/>
	<path class="st3" d="M551.9,382.6h8.3l-1.7,5.3c4-4,8.8-6.2,14.3-6.2c11.2,0,17.9,8.9,14,21.2l-9,29.2h-8.4l9-29.4
		c2.9-9.5-2.1-14-8.7-14c-5.4,0-10.1,2.6-13.7,7.7l-11,35.9h-8.3L551.9,382.6z"/>
</g>
<g>
	<path class="st4" d="M56.4,551.5H36.2L8,479.7h17.3l21.4,57.7l21-57.7h16.9L56.4,551.5z"/>
	<path class="st4" d="M94.6,524.7l17.6-3.8v-0.4c0-5.3-3.2-8.7-8.8-8.7c-5.6,0-8.9,2.9-11.1,8.1l-13.1-3.3
		c3.4-9.1,12-16.4,25.2-16.4c14,0,22.7,7.4,22.7,20.5v30.9h-14.8v-6.1c-3.4,4.2-8.9,7.2-16.1,7.2c-8.9,0-15.6-5.3-15.6-13.5
		C80.4,530.9,85.7,526.7,94.6,524.7z M100.6,542.6c4.8,0,8.8-2.5,11.6-5.8v-7.3l-12.2,2.9c-3.3,0.7-5.5,2.5-5.5,5.2
		C94.5,540.7,96.7,542.6,100.6,542.6z"/>
	<path class="st4" d="M150.4,479.7v71.8h-14.9v-71.8L150.4,479.7L150.4,479.7z"/>
	<path class="st4" d="M183,552.4c-15.3,0-26.6-11.1-26.6-25.8s10.6-26.4,25.5-26.4c15,0,24.6,11.3,24.6,25.2v3.6h-35.6
		c0.8,7.1,5.4,12.1,12.6,12.1c5.2,0,8.8-2.6,10.7-6.9l12.3,4C202.9,546.7,194.3,552.4,183,552.4z M171.2,520.2h20.9
		c-1.4-5.5-4.9-9.3-10.4-9.3C177,511.1,172.8,514.3,171.2,520.2z"/>
	<path class="st4" d="M216.6,513.4h-8.7v-12.2h8.7v-11.1l14.8-5.3v16.4h14.3v12.2h-14.3v19.6c0,4.4,2.4,6.9,7.3,6.9
		c2.1,0,4.3-0.6,6-1.4l1.7,11.3c-2.6,1.2-6.8,2.5-11.6,2.5c-10.7,0-18.2-5.6-18.2-16.3V513.4z"/>
	<path class="st4" d="M265.3,501.2v29.9c0,5.7,3.1,9.4,8.6,9.4c3.8,0,7-1.5,8.9-4.3v-34.9h14.9v50.4h-14.9v-5
		c-2.9,3.7-7.5,5.9-13.8,5.9c-10.8,0-18.6-7.2-18.6-18.6v-32.8H265.3z"/>
	<path class="st4" d="M303.9,526.4c0-14.8,10.2-26.2,23.6-26.2c5.3,0,10.3,1.6,14,4.7v-25.2h14.9v71.8h-14.9v-4.5
		c-3.8,3.5-8.5,5.3-14,5.3C314,552.4,303.9,542.2,303.9,526.4z M330.6,540.4c4.7,0,8.4-2.4,11-5.5v-17.2c-2.5-3.5-6.1-5.5-11-5.5
		c-7.4,0-12.3,6-12.3,14.2C318.3,534.4,323.2,540.4,330.6,540.4z"/>
	<path class="st4" d="M364.1,484.8c0-4.5,3.9-8.5,8.5-8.5s8.6,4,8.6,8.5c0,4.6-4.1,8.4-8.6,8.4C367.9,493.3,364.1,489.5,364.1,484.8
		z M380.1,501.2v50.4h-14.9v-50.4H380.1z"/>
	<path class="st4" d="M388.6,501.2h14.9v5.1c2.8-3.7,7.4-6,13.8-6c10.8,0,18.7,7.2,18.7,18.6v32.8h-14.8v-30c0-5.6-3.1-9.3-8.7-9.3
		c-3.8,0-7,1.4-8.9,4.3v34.9h-15V501.2z"/>
	<path class="st4" d="M456.7,524.7l17.6-3.8v-0.4c0-5.3-3.2-8.7-8.8-8.7c-5.6,0-8.9,2.9-11.1,8.1l-13.1-3.3
		c3.4-9.1,12-16.4,25.2-16.4c14,0,22.7,7.4,22.7,20.5v30.9h-14.8v-6.1c-3.4,4.2-8.9,7.2-16.1,7.2c-8.9,0-15.6-5.3-15.6-13.5
		C442.5,530.9,447.8,526.7,456.7,524.7z M462.7,542.6c4.8,0,8.8-2.5,11.6-5.8v-7.3l-12.2,2.9c-3.3,0.7-5.5,2.5-5.5,5.2
		C456.5,540.7,458.8,542.6,462.7,542.6z"/>
	<path class="st4" d="M512.6,501.2v5.7c2.6-4.1,7.3-6.8,13.4-6.8c1.1,0,2.4,0.2,3.3,0.4l-0.4,13.2c-1.4-0.4-3-0.8-5-0.8
		c-5.1,0-9.7,2.4-11.3,6.6v32h-15v-50.4L512.6,501.2L512.6,501.2z"/>
	<path class="st4" d="M550.9,550.7l-20.7-49.5h16.1l12.5,32.6l14.2-32.6h15l-31.4,70h-15.4L550.9,550.7z"/>
</g>
<g>
	<path class="st5" d="M38.7,648.1l-7.6,24.5H15.1l7.8-25.2L8,600.1h16.3l10,33.7L64,600.1h18.4L38.7,648.1z"/>
	<path class="st5" d="M116.5,642.6c0,17.3-13.8,30.9-29.6,30.9c-13.7,0-23.2-8.8-23.2-21.8c0-17,13.7-30.8,29.6-30.9
		C107.1,620.7,116.5,629.6,116.5,642.6z M77.6,650.7c0,6.7,4.1,10.7,10,10.7c7.6,0,14.8-8.1,14.8-17.8c0-6.4-4.1-10.7-10-10.7
		C84.7,632.8,77.6,641,77.6,650.7z"/>
	<path class="st5" d="M135.4,651.2c-2.2,7.2,1.4,10.3,6,10.3c3.4,0,6.7-1.4,9.5-4l11-35.8h14.9l-15.6,50.9h-14.5l1.4-4.6
		c-3.5,3.2-8.2,5.4-13.5,5.4c-11.3,0-18-8.8-14.4-21.1l9.4-30.6h14.9L135.4,651.2z"/>
	<path class="st5" d="M185.6,634.1h-8.5l3.7-12.4h8.5l3.4-11.2l16.2-5.4l-5.1,16.5h14.5l-3.7,12.4h-14.6l-5.9,19.3
		c-1.7,5.5,0.7,7.5,5.2,7.5c1.8,0,3.7-0.2,5.4-0.7l0.6,11.2c-2.8,0.9-5.9,1.9-11.3,1.9c-10.7,0-18.5-6.3-14.9-18.6L185.6,634.1z"/>
	<path class="st5" d="M231,600.1h14.9l-7.9,25.8c3.4-3,7.9-5,13-5c11.3,0,18,8.8,14.4,21.1l-9.4,30.6h-14.9l9-29.4
		c2.2-7.2-1.4-10.3-6-10.3c-3.4,0-6.7,1.4-9.6,4.1l-10.9,35.7h-14.9L231,600.1z"/>
	<path class="st5" d="M283.7,621.8l2.9-9.4c3-10,9.9-16.2,20.1-16.2c4.2,0,8.2,0.8,11,2.2l-4.1,11.6c-2-0.9-3.4-1.4-5.6-1.4
		c-3.3,0-6.2,1.8-7.5,6l-2.2,7.2H312l-3.7,12.4h-13.6l-11.9,38.6h-14.8L280,634h-8.7l3.7-12.4L283.7,621.8L283.7,621.8L283.7,621.8z
		"/>
	<path class="st5" d="M322,651.2c-2.2,7.2,1.4,10.3,6,10.3c3.4,0,6.7-1.4,9.5-4l11-35.8h14.9l-15.6,50.9h-14.5l1.4-4.6
		c-3.5,3.2-8.2,5.4-13.5,5.4c-11.3,0-18-8.8-14.4-21.1l9.4-30.6h14.9L322,651.2z"/>
	<path class="st5" d="M394.3,600.1l-22.2,72.6h-14.9l22.2-72.6H394.3z"/>
	<path class="st5" d="M397,621.8h14.5l-1.4,4.6c3.5-3.2,8.2-5.4,13.5-5.4c11.3,0,18,8.8,14.4,21.1l-9.4,30.6h-14.9l9-29.4
		c2.2-7.2-1.4-10.3-6-10.3c-3.4,0-6.7,1.4-9.6,4.1l-10.9,35.7h-14.9L397,621.8z"/>
	<path class="st5" d="M465.5,673.4c-13.6,0-23.6-8.7-23.6-22.6c0-15.8,12.3-30.1,28.4-30.1c14,0,21.3,9.9,21.3,21.6
		c0,1.9-0.3,5.3-0.9,7.4h-34.9c0,8.3,4.4,12.4,11.2,12.4c4.1-0.1,7.4-2.1,10.1-5.4l11.2,4.8C483.4,668.7,475.2,673.4,465.5,673.4z
		 M457.5,641h20.6c-0.4-5.8-3.7-9.4-8.8-9.4C464.1,631.8,459.8,635.5,457.5,641z"/>
	<path class="st5" d="M515.3,664.2c5.2,0,7.5-2.3,7.5-4.9c0-2.1-1.2-3.8-4.8-4.9l-7.9-2.3c-8.7-2.5-12.7-6.7-12.7-14
		c0-10.9,9.7-17.2,20.9-17.2c11.6,0,19.7,6.1,21.9,15.5l-12,3.6c-1.4-5.5-5.1-8.7-10.8-8.7c-3.6,0-6.7,1.7-6.7,4.7
		c0,2.3,1.7,3.7,5.2,4.9l6.7,2.1c9.5,2.9,13.6,7,13.6,13.9c0,10.2-8,17.5-21.7,17.5c-11.6,0-21.1-6.1-23.2-15.7l11.9-3.4
		C504.8,661.1,508.7,664.2,515.3,664.2z"/>
	<path class="st5" d="M563,664.2c5.2,0,7.5-2.3,7.5-4.9c0-2.1-1.2-3.8-4.8-4.9l-7.9-2.3c-8.7-2.5-12.7-6.7-12.7-14
		c0-10.9,9.7-17.2,20.9-17.2c11.6,0,19.7,6.1,21.9,15.5l-12,3.6c-1.4-5.5-5.1-8.7-10.8-8.7c-3.6,0-6.7,1.7-6.7,4.7
		c0,2.3,1.7,3.7,5.2,4.9l6.7,2.1c9.5,2.9,13.6,7,13.6,13.9c0,10.2-8,17.5-21.7,17.5c-11.6,0-21.1-6.1-23.2-15.7l11.9-3.4
		C552.4,661.1,556.4,664.2,563,664.2z"/>
</g>
</svg>
