<?xml version="1.0" encoding="utf-8"?>
<!-- Generator: Adobe Illustrator 22.0.1, SVG Export Plug-In . SVG Version: 6.00 Build 0)  -->
<svg version="1.1" id="Layer_1" xmlns="http://www.w3.org/2000/svg" xmlns:xlink="http://www.w3.org/1999/xlink" x="0px" y="0px"
	 viewBox="0 0 596 696.7" style="enable-background:new 0 0 596 696.7;" xml:space="preserve">
<style type="text/css">
	.st0{fill:#63676B;}
	.st1{fill:#525559;}
	.st2{fill:#434447;}
	.st3{fill:#323335;}
	.st4{fill:#212224;}
	.st5{fill:#131314;}
</style>
<g>
	<path class="st0" d="M43.4,74.3C24.2,74.3,8,59.3,8,38.7C8,16.4,24.7,2.1,43.3,2.1C62.6,2,78.8,17,78.8,37.5
		C78.8,59.9,62.1,74.3,43.4,74.3z M43.6,70.7C59.3,70.7,72,57.1,72,38.5C72,18.7,58.6,5.6,43.1,5.6c-15.7,0-28.4,13.6-28.4,32.2
		C14.8,57.6,28.1,70.7,43.6,70.7z"/>
	<path class="st0" d="M88.1,33.2c-0.8-1.9-1.1-2.1-2.6-2.4l-2.8-0.5v-2.3h19v2.3l-4.5,0.5c-2.6,0.3-3,0.9-2,3.4L108,65.5
		c0.3,0.7,0.7,0.7,0.9,0l12.5-30.3c1.2-2.9,0.8-4-2.6-4.3l-3.6-0.4v-2.4h16.4v2.3l-1.9,0.3c-2.4,0.4-3.2,0.9-4.3,3.7l-16.5,39.6
		h-3.6L88.1,33.2z"/>
	<path class="st0" d="M168.3,45h-31.5c-0.2,1.4-0.3,2.8-0.3,4.4c0,12.5,7.3,20,16.2,20c5.7,0,11.2-2.9,14.8-8.3l0.3,0.1
		C165.2,69.6,158.7,74,151,74c-11.5,0-20.2-8.9-20.2-23.2c0-14.7,9.5-24.3,20.5-24.3C161,26.7,168.1,33.5,168.3,45z M137.7,41.6
		h23.2c1.1,0,1.4-0.3,1.4-1.4c0-5.5-4.6-10.2-10.9-10.2C145.2,30.1,139.9,34.4,137.7,41.6z"/>
	<path class="st0" d="M184.6,70l6.9,0.6v2.3H170v-2.3l5.7-0.6c1.2-0.1,1.4-0.5,1.4-1.7V34.5c0-1.4-0.2-1.8-1.4-2.1l-5.7-1.6v-1
		l13.1-3.2v9.4c2.6-6,7.1-9.2,12.7-9.2c4.9,0,9.5,3.4,9.5,7.3c0,2-1.2,3.1-2.7,3.1c-1.5,0-2.4-0.9-3.5-3.2c-1.1-2.3-2.5-3.5-5.4-3.5
		c-3.9,0-8.2,2.7-10.5,10.4v27.4C183.2,69.5,183.5,69.9,184.6,70z"/>
	<path class="st0" d="M244.2,45h-31.5c-0.2,1.4-0.3,2.8-0.3,4.4c0,12.5,7.3,20,16.2,20c5.7,0,11.2-2.9,14.8-8.3l0.3,0.1
		c-2.6,8.3-9.1,12.8-16.8,12.8c-11.5,0-20.2-8.9-20.2-23.2c0-14.7,9.5-24.3,20.5-24.3C237,26.7,244,33.5,244.2,45z M213.6,41.6h23.2
		c1.1,0,1.4-0.3,1.4-1.4c0-5.5-4.6-10.2-10.9-10.2C221.2,30.1,215.8,34.4,213.6,41.6z"/>
	<path class="st0" d="M266.5,52.7l-10.4,13.9c-1.7,2.3-1.5,3.2,0.8,3.5l3.7,0.5v2.3h-15.8v-2.3c3.5-0.5,4.9-1.1,7.1-3.8l12.7-16.7
		l-13-17.4c-1.2-1.6-1.9-1.9-5.3-2.4v-2.3h18.1v2.3l-4,0.6c-2,0.3-1.9,1.4-0.5,3.3l8.6,11.6l8.7-11.5c1.6-2.1,1.4-3.2-0.9-3.5
		l-3.6-0.5v-2.3h15.8v2.3c-3.5,0.5-4.8,1.1-7,3.8l-11.1,14.4L285,68.2c1.2,1.7,1.9,2,5.3,2.4v2.3h-18.1v-2.3l3.7-0.5
		c2-0.3,2.5-1.3,1.2-2.9L266.5,52.7z"/>
	<path class="st0" d="M298.8,62.6v-31h-6.1v-0.9c4.2-3.1,8.8-7.8,11.9-12.4h0.3V28l13.8-0.1v4l-13.8-0.1v29.8c0,5.6,3,8.4,7.6,8.4
		c2.8,0,4.9-1.2,7.5-3.9l0.3,0.2c-2.2,5.2-5.5,7.8-10.3,7.8C303.3,74.1,298.8,70.1,298.8,62.6z"/>
	<path class="st0" d="M359.5,45H328c-0.2,1.4-0.3,2.8-0.3,4.4c0,12.5,7.3,20,16.2,20c5.7,0,11.2-2.9,14.8-8.3l0.3,0.1
		c-2.6,8.3-9.1,12.8-16.8,12.8c-11.5,0-20.2-8.9-20.2-23.2c0-14.7,9.5-24.3,20.5-24.3C352.3,26.7,359.3,33.5,359.5,45z M328.9,41.6
		h23.2c1.1,0,1.4-0.3,1.4-1.4c0-5.5-4.6-10.2-10.9-10.2C336.5,30.1,331.1,34.4,328.9,41.6z"/>
	<path class="st0" d="M375.9,70l5.6,0.6v2.3h-20.2v-2.3l5.7-0.6c1.2-0.1,1.4-0.5,1.4-1.7V34.5c0-1.4-0.2-1.8-1.4-2.1l-5.7-1.6v-1
		l13.1-3.2v8.2c3-5.2,8.2-8,14.4-8c9.4,0,15.1,6,15.1,15.3v26.2c0,1.2,0.3,1.6,1.5,1.7l5.7,0.6v2.3h-20.1v-2.2l5.6-0.6
		c1.2-0.1,1.4-0.5,1.4-1.7V42.6c0-7.8-4-11.9-10.5-11.9c-5.2,0-9.9,2.4-12.9,7.6v30.1C374.4,69.5,374.6,69.9,375.9,70z"/>
	<path class="st0" d="M433.5,26.8c6.3,0,11.7,2.9,15,8v-27c0-1.4-0.2-1.7-1.5-2l-5.7-1.6V3.1L454.6,0v66c0,1.6,0.2,1.8,1.4,2.2
		l5.7,1.9v1.1l-13.1,2v-8.4c-3.2,5.8-9.2,9.3-15.8,9.3c-11.2,0-20.2-9.2-20.2-23.1C412.4,35.7,421.9,26.8,433.5,26.8z M434.1,70
		c5.9,0,11.1-3.1,14.3-8.5V39c-3.2-5.7-8.2-8.4-14.1-8.4c-8.7,0-15.8,7.7-15.8,19.9C418.5,62.5,425.5,70,434.1,70z"/>
	<path class="st0" d="M480.2,70l5.6,0.6v2.3h-20.1v-2.3l5.7-0.6c1.2-0.1,1.4-0.5,1.4-1.7V34.5c0-1.4-0.2-1.8-1.4-2.1l-5.7-1.6v-1
		l13.1-3.2v41.7C478.7,69.5,478.9,69.9,480.2,70z M475.6,6.6c2.3,0,4.1,1.9,4.1,4.2c0,2.2-1.8,4.1-4.1,4.1c-2.3,0-4.1-1.9-4.1-4.1
		C471.6,8.5,473.4,6.6,475.6,6.6z"/>
	<path class="st0" d="M504.4,70l5.6,0.6v2.3h-20.1v-2.3l5.7-0.6c1.2-0.1,1.4-0.5,1.4-1.7V34.5c0-1.4-0.2-1.8-1.4-2.1l-5.7-1.6v-1
		l13.1-3.2v8.2c3-5.2,8.2-8,14.4-8c9.4,0,15.1,6,15.1,15.3v26.2c0,1.2,0.3,1.6,1.5,1.7l5.7,0.6v2.3h-20.1v-2.2l5.6-0.6
		c1.2-0.1,1.4-0.5,1.4-1.7V42.6c0-7.8-4-11.9-10.5-11.9c-5.2,0-9.9,2.4-12.9,7.6v30.1C502.9,69.5,503.1,69.9,504.4,70z"/>
	<path class="st0" d="M545.9,83.5c0-2.6,1.5-4,3.4-4c1.6,0,2.5,1.1,2.7,2.6c0.3,1.4,0,2.8,0.3,4.1c0.9,3.1,4.1,5.2,10.8,5.2
		c9.5,0,17-5.8,17-12.8c0-4.6-3.4-7.4-9.6-6.4l-16.4,2.2c-7.2,1-11.1-2.3-11.1-7.6s4.7-8.7,12-9.9c-5.6-2.5-9.5-7.7-9.5-13.8
		c0-9.5,7.7-16.3,17.1-16.3c4,0,7.9,1.4,11.1,3.7v-0.2c0-6.2,4.1-10.4,9.5-10.4c3.3,0,4.6,2,4.6,3.4c0,1.8-1.6,2.8-3.6,2.8
		c-1.4,0-2.6-0.6-3.9-0.6c-2.2,0-4.1,2-4.1,5.4c0,0.8,0.1,1.6,0.3,2.6c1.9,2.5,3.1,5.5,3.1,8.9c0,9.5-7.7,15.9-16.6,16.2
		c-10.5,0.4-15.7,3.1-15.7,6.6c0,2.6,2.2,4.2,6.8,3.5l16.5-2.2c9.1-1.3,14.6,2.7,14.6,10.1c0,10.6-10.3,17.8-22.4,17.8
		C553.1,94.4,545.9,89.8,545.9,83.5z M573.8,42.7c0-7.9-5.2-12.9-11.2-12.9c-6.1,0-11.1,5.1-11.1,12.9c0,7.9,5.2,13,11.2,13
		C569,55.7,573.8,50.6,573.8,42.7z"/>
</g>
<g>
	<path class="st1" d="M8,168.8c0-25.6,21.8-46.5,46.3-46.5c16.6,0,21.1,10.9,23.5,10.9c0.6,0,1.2-0.7,6.1-4.5l-8.3,20.1h-2.7
		c4-14.4-5.6-22.7-18.8-22.7c-20.7,0-39.7,19.9-39.7,42.9c0,14.2,8.8,22.9,20.7,22.9c6.5,0,14.4-2.6,21.3-7l6.9-17.4
		c0.5-1.4,0.3-1.9-1.2-2l-9.4-0.8l1.2-2.4h27.1l-0.9,2.4l-7.9,0.9c-1.5,0.2-1.9,0.4-2.4,1.7L59,194.9c-1.4-5.5-1.6-6-2.2-6
		c-1.5,0-10,6.7-22,6.7C20.2,195.5,8,185.4,8,168.8z"/>
	<path class="st1" d="M96.2,152.3c-4.1,0.7-8.9,2.9-13.6,6l-0.2-0.4c5.5-6.1,12.8-10.3,19.8-10.3h0.3c1.2,0,1.4,0.5,1,1.6l-8,20
		c10.3-17.6,16-21.8,21.8-21.8c4.1,0,7,2.7,7,6.3c0,2.1-1.3,3.6-3.2,3.6c-1.4,0-2.4-0.9-3-2.9c-0.4-1.7-1.4-2.7-3.1-2.7
		c-4,0-8.2,2.4-23.3,26.8l-6.2,15.6h-6L96.2,152.3z"/>
	<path class="st1" d="M118.7,183.1c0-17,16.5-35.8,31-35.8c4.2,0,8.1,1.5,10.9,4l6.4-4.2h0.2l-16.5,42c-0.4,1.1-0.1,1.7,0.9,1.7
		c2.3,0,6.5-2.1,13.5-8.2l0.3,0.2c-5.3,7.9-11.4,12.4-16.7,12.4c-4.1,0-5.7-2.4-4-6.4l4.2-10.6c-7.9,12.4-13.5,17-20.1,17
		C122.6,195.3,118.7,191,118.7,183.1z M130.5,191.2c5.6,0,10.1-4.3,21.9-21.5l6.1-15.5c-2.7-2.2-5.6-3.3-8.7-3.3
		c-11.2,0-25.4,18.2-25.4,32.1C124.4,188.2,126.8,191.2,130.5,191.2z"/>
	<path class="st1" d="M183.7,152.3c-4,0.7-8.8,2.9-13.6,6l-0.2-0.4c5.5-6.1,12.8-10.3,19.8-10.3h0.3c1.2,0,1.5,0.5,1.2,1.6l-8.7,22
		c12.5-17.4,19.8-24.1,26.9-24.1c6.4,0,9.6,5.3,5.9,13l-13.5,28.9c-0.5,1.1-0.2,1.7,0.9,1.7c2.3,0,6.4-2.1,13.5-8.2l0.4,0.2
		c-5.4,7.9-11.5,12.4-16.9,12.4c-4,0-5.7-2.6-3.9-6.3l14.3-30.4c1.9-4.1,0.5-6.8-2.8-6.8c-5.4,0-11.6,6-27.2,25.9l-6.5,16.5h-6
		L183.7,152.3z"/>
	<path class="st1" d="M250.6,147.4c4.2,0,8.3,1.4,11.2,3.7l9.2-22.9c0.6-1.5,0.4-2-0.9-2.5l-4.7-1.4l0.4-1.2l14.3-2.8L253,189.2
		c-0.4,1.1-0.1,1.7,0.9,1.7c2.3,0,6.5-2.1,13.5-8.2l0.3,0.2c-5.3,7.9-11.4,12.4-16.7,12.4c-4.1,0-5.7-2.4-4-6.4l4.4-10.9
		c-8.2,12.7-14.4,17.5-21,17.5c-6.3,0-10.3-4.3-10.3-12.2C219.9,165.8,235.1,147.4,250.6,147.4z M231.8,191.2
		c5.4,0,10.7-4.3,22.5-21.5l6-15.4c-2.9-2.3-6.2-3.5-9.9-3.5c-12.1,0-24.9,17.9-24.9,32.1C225.7,188.2,227.9,191.2,231.8,191.2z"/>
	<path class="st1" d="M277.6,190.8c2.3,0,6.4-2.1,13.4-8.2l0.4,0.2c-5.4,7.9-11.5,12.4-16.8,12.4c-3.9,0-5.7-2.3-3.9-6.4l15.7-36.6
		c-4.2,0.7-8.9,2.9-13.7,6l-0.2-0.4c5.5-6.1,12.8-10.3,19.9-10.3h0.3c1.2,0,1.5,0.5,1,1.6l-17,39.9
		C276.2,190.2,276.6,190.8,277.6,190.8z M292.8,131.6c-0.1-2.6,2-4.8,4.6-4.8c2.1,0,3.6,1.5,3.6,3.6c0,2.6-2,4.8-4.6,4.8
		C294.2,135.2,292.8,133.6,292.8,131.6z"/>
	<path class="st1" d="M301.1,190.8c2.3,0,6.4-2.1,13.4-8.2l0.3,0.2c-5.3,7.9-11.4,12.4-16.6,12.4c-4.1,0-5.7-2.4-4-6.4l24.1-60.7
		c0.6-1.5,0.5-2-0.9-2.5l-4.6-1.4l0.4-1.2l14.3-2.8l-27.3,68.9C299.7,190.2,300.1,190.8,301.1,190.8z"/>
	<path class="st1" d="M333.3,195.5c-8.7,0-14.7-5.9-14.7-16.3c0-14.9,11.7-32,26.7-32c8.7,0,14.7,5.9,14.7,16.3
		C359.9,178.3,348.2,195.5,333.3,195.5z M345.1,150.7c-10.8,0-20.8,17.4-20.8,30c0,6.7,3.5,11.3,9.3,11.3c10.8,0,20.8-17.4,20.8-30
		C354.3,155.3,350.9,150.7,345.1,150.7z"/>
	<path class="st1" d="M393.4,147.4c4.5,0,8.9,1.6,11.8,4.2l6.7-4.4h0.2l-24.9,63.3c-0.5,1.3-0.3,1.8,1,1.9l5.2,0.5l-0.9,2.3H372
		l0.9-2.3l6-0.6c1.2-0.1,1.6-0.4,2.1-1.6l12.9-32.8c-8.1,12.6-14.3,17.5-20.9,17.5c-6.3,0-10.3-4.3-10.3-12.2
		C362.7,165.8,378,147.4,393.4,147.4z M374.7,191.2c5.4,0,10.7-4.3,22.5-21.6l6-15.3c-2.9-2.3-6.2-3.5-9.9-3.5
		c-12.1,0-24.9,17.9-24.9,32.1C368.5,188.2,370.8,191.2,374.7,191.2z"/>
	<path class="st1" d="M448.5,165.2l6.5-16.6h6l-16,40.6c-0.4,1.1-0.1,1.7,1,1.7c2.3,0,6.4-2.1,13.4-8.2l0.3,0.2
		c-5.3,7.9-11.4,12.4-16.7,12.4c-4.1,0-5.6-2.4-3.9-6.4l6.8-17.5c-12.4,17.4-19.8,24.1-26.9,24.1c-6.2,0-9.6-5.2-5.9-13l14.2-30.2
		c-4.2,0.7-8.9,2.9-13.6,6l-0.2-0.4c5.5-6.2,12.9-10.3,20.1-10.3h0.3c1.2,0,1.5,0.5,1,1.6l-16.4,34.7c-1.9,4.2-0.5,6.8,2.7,6.8
		C426.5,191,432.9,185,448.5,165.2z"/>
	<path class="st1" d="M475.6,195.5c-7.2,0-12.4-5.5-12.4-14.7c0-15.4,13.4-33.7,27.3-33.7c5.6,0,8.9,2.8,8.9,7.3
		c0,7.6-9.2,15-29.4,18c-0.6,2.5-1,5.2-1,7.8c0,6.9,3.5,10.7,7.8,10.7c5.2,0,10.4-3,16.8-11.2l0.3,0.2
		C489.7,190.3,483.1,195.5,475.6,195.5z M489.3,150.4c-6.7,0-14.8,8.8-18.3,19.3c14.8-2.6,22.5-9.3,22.5-15
		C493.5,152.2,491.9,150.4,489.3,150.4z"/>
	<path class="st1" d="M515.9,152.3c-4,0.7-8.8,2.9-13.6,6l-0.2-0.4c5.5-6.1,12.8-10.3,19.8-10.3h0.3c1.2,0,1.5,0.5,1.2,1.6l-8.7,22
		c12.5-17.4,19.8-24.1,26.9-24.1c6.4,0,9.6,5.3,5.9,13l-13.5,28.9c-0.5,1.1-0.2,1.7,0.9,1.7c2.3,0,6.4-2.1,13.5-8.2l0.4,0.2
		c-5.4,7.9-11.5,12.4-16.9,12.4c-4,0-5.7-2.6-3.9-6.3l14.3-30.4c1.9-4.1,0.5-6.8-2.8-6.8c-5.4,0-11.6,6-27.2,25.9l-6.5,16.5h-6
		L515.9,152.3z"/>
	<path class="st1" d="M554.1,181.3l12.2-29.1h-6l0.4-1.2c5.9-3.3,12.1-7.5,17.5-12.5h0.2l-4.2,9.9l13.9-0.1l-1.5,4l-13.9-0.1
		l-12.9,30.5c-2.3,5.5-0.6,8.2,2.9,8.2c3.6,0,7.4-1.9,13.3-7.8l0.4,0.2c-4.4,8.2-9.9,11.9-15.7,11.9
		C553.8,195.3,550.4,190.2,554.1,181.3z"/>
</g>
<path class="st2" d="M29.5,307.4l7.5,0.8v3.1H8v-3.1l7.5-0.8c1.3-0.2,1.6-0.6,1.6-2v-55.3c0-1.3-0.4-1.7-1.6-1.9L8,247.3v-3h28.9v3
	l-7.5,0.9c-1.3,0.2-1.6,0.6-1.6,1.9v55.3C27.9,306.8,28.2,307.2,29.5,307.4z M57.1,307.9l4.6,0.5v2.8H40.4v-2.8l4.7-0.5
	c1.3-0.2,1.6-0.7,1.6-1.9v-30.6c0-1.4-0.2-1.8-1.5-2.4l-4.7-2v-1.4l15.2-3.9v7.8c3.1-5,8-7.7,13.9-7.7c8.3,0,14.1,5.4,14.1,14.7
	v25.4c0,1.2,0.3,1.7,1.6,1.9l4.7,0.5v2.8H68.5v-2.8l4.6-0.5c1.3-0.2,1.6-0.7,1.6-1.9v-24.8c0-6.9-3.6-10.2-8.8-10.2
	c-4.2,0-7.8,2-10.3,5.7v29.3C55.6,307.1,55.9,307.7,57.1,307.9z M93.6,311.5c2.6-2.5,3.1-2.7,3.7-2.7c1.4,0,4,3.7,11.9,3.7
	c8.6,0,15.3-5.7,15.3-13.9c0-5.7-2.5-9.2-8.1-11.8l-8.4-3.7c-5-2.4-6.5-4-6.5-7.2c0-3.6,2.8-6.3,7-6.3c5.4,0,9,3.4,11.1,11h3.4
	v-14.6c-1.5,1.4-2.3,2.1-2.7,2.4c-3.4-2.6-4.9-6.3-4.9-10.7c0-6.9,5-12.3,11.7-12.3c7.4,0,12.6,3.9,12.6,12.2c0,2.6-0.5,4.5-3,6.9
	c-2.2,2.1-4.5,4-6.8,5.7v1.4h7.1V300c0,7.8,4.6,12.4,11.3,12.4c5.7,0,9.9-3.3,12.1-8.6l-0.4-0.3c-2.3,2.3-4.6,3.4-7.2,3.4
	c-4,0-6.9-2.6-6.9-7.8v-27.4l13.3,0.1v-5l-13.3,0.1v-5.7c0-13.6-7.8-20-18.9-20c-9.9,0-17.1,7.6-17.1,16.7c0,3,0.9,5.8,2.6,8.4
	c-1.3-0.3-2.6-0.5-4.4-0.5c-7.8,0-13.5,5.3-13.5,12.7c0,5.7,2.6,9,8.1,11.6l8.3,3.9c4.9,2.3,6.4,3.9,6.4,7.2c0,4.5-3.6,7.6-8.6,7.6
	c-5.6,0-9.6-4-11.9-12.8h-3.4V311.5z M179.1,307.9l5.7,0.5v2.8h-22.5v-2.8l4.7-0.5c1.3-0.2,1.6-0.7,1.6-1.9v-30.6
	c0-1.4-0.2-1.8-1.5-2.4l-4.7-2v-1.4l15.2-3.9v8.4c2.4-5.2,6.8-8.2,11.9-8.2c5.3,0,9.8,3.4,9.8,7.7c0,2.6-1.6,4.3-3.8,4.3
	c-1.8,0-3.2-0.8-4.2-3.5c-1.1-2.5-2.5-3.6-4.7-3.6c-3.6,0-7.1,2.6-8.9,9v26.2C177.5,307.2,177.9,307.8,179.1,307.9z M205.8,272.9
	l-4.9-2v-1.4l15.3-3.9v31.5c0,6.9,3.6,10.2,8.8,10.2c4.2,0,7.8-2,10.3-5.8v-26.3c0-1.4-0.2-1.8-1.5-2.4l-4.9-2v-1.4l15.3-3.9V303
	c0,1.3,0.3,1.6,1.4,2.3l5,2.8v1.4l-15.3,2.1v-6.9c-3.1,5-8,7.7-13.9,7.7c-8.3,0-14.1-5.4-14.1-14.8v-22.4
	C207.1,274,207,273.5,205.8,272.9z M270.2,307.9l4.6,0.5v2.8h-21.3v-2.8l4.7-0.5c1.3-0.2,1.6-0.7,1.6-1.9v-30.6
	c0-1.4-0.2-1.8-1.5-2.4l-4.7-2v-1.4l15.2-3.9v7.8c3-4.9,7.8-7.6,13.5-7.6c6.1,0,10.9,3,12.8,8.4c3.1-5.4,8.5-8.4,14.5-8.4
	c8.2,0,13.9,5.4,13.9,14.7v25.4c0,1.2,0.3,1.7,1.6,1.9l4.7,0.5v2.8h-21.3v-2.8l4.6-0.5c1.3-0.2,1.6-0.7,1.6-1.9v-24.8
	c0-6.9-3.4-10.2-8.3-10.2c-4.2,0-7.8,2.1-10.2,6.1c0.2,1.2,0.3,2.2,0.3,3.5v25.4c0,1.2,0.3,1.7,1.6,1.9l4.6,0.5v2.8h-21.2v-2.8
	l4.6-0.5c1.3-0.2,1.6-0.7,1.6-1.9v-24.8c0-6.9-3.4-10.2-8.3-10.2c-4,0-7.6,2-9.9,5.7v29.3C268.7,307.1,269.1,307.7,270.2,307.9z
	 M330.5,290.1c0-14.1,9-24.4,20.8-24.4c9.7,0,16.7,6.7,17.4,18.7h-29.5c-0.1,0.8-0.1,1.7-0.1,2.6c0,11.5,6.9,18.7,15,18.7
	c5.4,0,10-2.4,13.4-6.8l0.5,0.2c-2,8.4-9.1,13.4-17.3,13.4C339.3,312.5,330.5,303.5,330.5,290.1z M339.7,280.5h19
	c1.1,0,1.4-0.3,1.4-1.4c0-5.7-4-9.7-9-9.7C346.1,269.5,341.4,273.5,339.7,280.5z M386.6,307.9l4.6,0.5v2.8h-21.3v-2.8l4.7-0.5
	c1.3-0.2,1.6-0.7,1.6-1.9v-30.6c0-1.4-0.2-1.8-1.5-2.4l-4.7-2v-1.4l15.2-3.9v7.8c3.1-5,8-7.7,13.9-7.7c8.3,0,14.1,5.4,14.1,14.7
	v25.4c0,1.2,0.3,1.7,1.6,1.9l4.7,0.5v2.8h-21.4v-2.8l4.6-0.5c1.3-0.2,1.6-0.7,1.6-1.9v-24.8c0-6.9-3.6-10.2-8.8-10.2
	c-4.2,0-7.8,2-10.3,5.7v29.3C385,307.1,385.3,307.7,386.6,307.9z M424.4,300v-28.4h-7.1v-1.4c5.8-4.1,11.6-9.9,15.8-16.4h0.3v13
	l13.3-0.1v5l-13.3-0.1v27.4c0,5.2,2.9,7.8,6.9,7.8c2.6,0,4.9-1.1,7.2-3.4l0.4,0.3c-2.2,5.4-6.4,8.6-12.1,8.6
	C429,312.5,424.4,307.8,424.4,300z M451,303c0-4.7,2.4-7.6,9.9-11.1l15-7.2v-3.9c0-7.4-3.6-11.3-8.9-11.3c-4.7,0-8.2,2.8-8.8,8.8
	c-0.4,4-1.9,5.7-4.5,5.7c-2.3,0-4-1.6-4-4.6c0-7,8-13.5,18.1-13.5c11.1,0,17.1,5.7,17,16.5v20c0,3.3,1.7,5.2,4.1,5.2
	c1.7,0,2.8-0.6,4.1-2.5l0.5,0.2c-1.2,4.5-4.5,7.1-8.8,7.1c-4.9,0-8.3-3.1-8.8-8.2c-3.6,5.6-8.5,8.4-14.2,8.4
	C455.3,312.5,451,308.6,451,303z M466.5,306.9c3.6,0,6.8-1.8,9.5-5.6v-13.6l-9.4,4.9c-4.9,2.6-6.4,4.7-6.4,8.2
	C460.1,304.7,462.6,306.9,466.5,306.9z M511.7,307.9l4.7,0.5v2.8h-21.5v-2.8l4.7-0.5c1.3-0.2,1.6-0.7,1.6-1.9v-56.3
	c0-1.4-0.2-1.8-1.5-2.4l-4.7-2v-1.4l15.2-3.9v66C510.1,307.1,510.5,307.7,511.7,307.9z M536.1,307.9l4.7,0.5v2.8h-21.5v-2.8l4.7-0.5
	c1.3-0.2,1.6-0.7,1.6-1.9v-56.3c0-1.4-0.2-1.8-1.5-2.4l-4.7-2v-1.4l15.2-3.9v66C534.6,307.1,534.8,307.7,536.1,307.9z M550.7,332.6
	c-3.9,0-6.3-2-6.3-4.7c0-2.3,1.8-4,4.1-4c1.8,0,3.3,1.1,5.2,1.1c1.9,0,3.4-1.1,5.2-5.3l2.6-6.3l-16.9-40.5c-0.7-1.8-1.3-2.1-2.6-2.4
	l-2.6-0.5v-2.8h21v2.8l-3.4,0.5c-2.6,0.4-3.2,1.5-2.2,3.8l10.8,26.8c0.3,0.7,0.8,0.7,1.2,0l10.7-26.4c1.1-2.6,0-4-2.6-4.4l-2.7-0.4
	v-2.8H588v2.8l-1.6,0.3c-2.3,0.5-3.2,1.3-4.1,3.6l-20.1,48.5C558.8,329.8,555.1,332.6,550.7,332.6z"/>
<g>
	<path class="st3" d="M31.1,428.2c-0.5,1.4,0,2.2,1.6,2.2h15.5c9.5,0,11.6-1.2,21-16.6h3.8l-8.6,21H8l1.3-3.3l8.3-0.9
		c1.4-0.2,1.9-0.6,2.4-1.9l22.4-58.2c0.6-1.5,0.3-2.1-1.2-2.3l-7.2-0.9l1.3-3.2h31.1l-1.3,3.2l-9.3,1c-1.3,0.1-1.9,0.5-2.4,1.8
		L31.1,428.2z"/>
	<path class="st3" d="M74.8,423.9c0-17.3,17.8-36.9,32.2-36.9c3.9,0,7.5,1.5,10,4.1l9.2-4.3h0.4l-16.3,41c-0.4,0.8-0.1,1.2,0.7,1.2
		c1.7,0,5.4-1.4,13.1-7.4l0.4,0.3c-6.7,9.8-12.8,14.1-19.3,14.1c-4.7,0-6-2.7-4.4-6.8l4.1-10.5c-7.7,12.8-13.4,17.4-20.2,17.4
		C79,436,74.8,431.7,74.8,423.9z M88.8,430.2c4.1,0,8.4-3.8,20.3-22.2l5.7-13.9c-2.2-1.7-4.4-2.7-6.9-2.7
		c-10.5,0-24.1,19.4-24.1,32.1C83.8,427.8,85.9,430.2,88.8,430.2z"/>
	<path class="st3" d="M128.5,421l11.9-28.2h-7.2l0.6-1.4c8.1-4.5,15.6-10.1,23.1-17.3h0.3l-5.9,13.9l13.8-0.1l-2,5l-13.8-0.1
		l-12.3,29.1c-2.1,5-0.6,8,2.6,8c3.5,0,7.5-1.9,13.5-7.3l0.4,0.3c-5.7,9.3-11.9,13-17.8,13C128.5,436,124.8,430.1,128.5,421z"/>
	<path class="st3" d="M169.6,436.2c-8,0-13-5.2-13-14.1c0-16.8,14.2-35.4,30-35.4c5.7,0,9.4,3.2,9.4,7.7c0,6.6-8.1,15.6-29,18.8
		c-0.7,2.6-1.2,5.4-1.2,8c0,6.3,3.4,9.1,7.4,9.1c4.5,0,8.8-2.5,16.9-10.4l0.4,0.3C184.2,431.8,177.8,436.2,169.6,436.2z
		 M183.9,390.7c-5.2,0-12.3,8.7-15.8,18.8c13.4-2.6,18.9-9.7,18.9-15.5C187.1,392.1,185.8,390.7,183.9,390.7z"/>
	<path class="st3" d="M210.8,394.1c-3.8,0.5-8.4,2.1-13.5,5.3L197,399c6.7-7.4,14.1-11.6,22.6-11.6h0.8c1.3,0,1.7,0.8,1.3,1.8
		l-6.8,17.3c9.9-16.3,14.8-19.3,20.3-19.3c4.5,0,7.3,3.1,7.3,6.8c0,3.3-1.8,5.4-4.6,5.4c-1.7,0-3.2-1-3.8-3.3
		c-0.7-2.4-1.9-3.3-3.4-3.3c-2.7,0-7,3.5-20.2,24.7l-6.8,17.3h-8.8L210.8,394.1z"/>
	<path class="st3" d="M237.7,423.9c0-17.3,17.8-36.9,32.2-36.9c3.9,0,7.5,1.5,10,4.1l9.2-4.3h0.4l-16.3,41c-0.4,0.8-0.1,1.2,0.7,1.2
		c1.7,0,5.4-1.4,13.1-7.4l0.4,0.3c-6.7,9.8-12.8,14.1-19.3,14.1c-4.7,0-6-2.7-4.4-6.8l4.1-10.5c-7.7,12.8-13.4,17.4-20.2,17.4
		C242,436,237.7,431.7,237.7,423.9z M251.8,430.2c4.1,0,8.4-3.8,20.3-22.2l5.7-13.9c-2.2-1.7-4.4-2.7-6.9-2.7
		c-10.5,0-24.1,19.4-24.1,32.1C246.7,427.8,248.8,430.2,251.8,430.2z"/>
	<path class="st3" d="M298.5,428.9c1.7,0,5.4-1.4,13.1-7.4l0.4,0.3c-6.7,9.8-12.8,14.1-19.3,14.1c-4.7,0-6-2.7-4.4-6.8l23.5-59.2
		c0.6-1.6,0.4-2.1-0.7-2.8l-3.7-2.3l0.6-1.4l16.8-3.7l-26.9,68C297.4,428.6,297.7,428.9,298.5,428.9z"/>
	<path class="st3" d="M324.6,428.9c1.7,0,5.4-1.4,13.1-7.4l0.4,0.3c-6.7,9.8-12.8,14.1-19.3,14.1c-4.7,0-6.1-2.7-4.4-6.8l14.9-35
		c-3.8,0.5-8.3,2.2-13.4,5.3l-0.3-0.4c6.7-7.4,14.1-11.6,22.6-11.6h0.8c1.3,0,1.7,0.8,1.3,1.8l-16.2,38.5
		C323.5,428.6,323.8,428.9,324.6,428.9z M336.8,372c-0.1-3.6,2.7-6.3,6.1-6.3c3.1,0,5.2,2.2,5.2,4.9c0.1,3.6-2.7,6.4-6.2,6.4
		C338.8,377,336.8,374.7,336.8,372z"/>
	<path class="st3" d="M335.1,432.9l36.1-34.2l-11.3-4.5c-2.3-0.9-4.5-1.4-5.9-1.4c-0.9,0-1.2,0.3-1.2,0.8c0,1.2,2.3,3.4,2.3,6.4
		c0,2.6-2.1,3.9-4.1,3.9c-2.6,0-4.6-2.1-4.6-5.3c0-5.8,6.8-11.7,13.4-11.7c3.1,0,5.5,0.4,9.8,2l8.1,2.9l5.5-5.3l3.5,3.4L351,423.7
		l5.5,2.8c4.5,2.4,7.7,3.4,10.7,3.4c3.1,0,5.2-0.5,11.5-6.1l0.5,0.4c-6,10.2-9.2,14-16.3,14c-3.4,0-6.3-1.4-10.5-3.5l-8.2-4
		l-5.8,5.5L335.1,432.9z"/>
	<path class="st3" d="M381.1,423.9c0-17.3,17.8-36.9,32.2-36.9c3.9,0,7.5,1.5,10,4.1l9.2-4.3h0.4l-16.3,41c-0.4,0.8-0.1,1.2,0.7,1.2
		c1.7,0,5.4-1.4,13.1-7.4l0.4,0.3C424,431.7,418,436,411.4,436c-4.7,0-6-2.7-4.4-6.8l4.1-10.5c-7.7,12.8-13.4,17.4-20.2,17.4
		C385.3,436,381.1,431.7,381.1,423.9z M395.1,430.2c4.1,0,8.4-3.8,20.3-22.2l5.7-13.9c-2.2-1.7-4.4-2.7-6.9-2.7
		c-10.5,0-24.1,19.4-24.1,32.1C390.1,427.8,392.3,430.2,395.1,430.2z"/>
	<path class="st3" d="M434.9,421l11.9-28.2h-7.2l0.6-1.4c8.1-4.5,15.6-10.1,23.1-17.3h0.3l-5.9,13.9l13.8-0.1l-2,5l-13.8-0.1
		l-12.3,29.1c-2.1,5-0.6,8,2.6,8c3.5,0,7.5-1.9,13.5-7.3l0.4,0.3c-5.7,9.3-11.9,13-17.8,13C434.9,436,431.1,430.1,434.9,421z"/>
	<path class="st3" d="M476,428.9c1.7,0,5.4-1.4,13.1-7.4l0.4,0.3c-6.7,9.8-12.8,14.1-19.3,14.1c-4.7,0-6.1-2.7-4.4-6.8l14.9-35
		c-3.8,0.5-8.3,2.2-13.4,5.3l-0.3-0.4c6.7-7.4,14.1-11.6,22.6-11.6h0.8c1.3,0,1.7,0.8,1.3,1.8l-16.2,38.5
		C475,428.6,475.3,428.9,476,428.9z M488.2,372c-0.1-3.6,2.7-6.3,6.1-6.3c3.1,0,5.2,2.2,5.2,4.9c0.1,3.6-2.7,6.4-6.2,6.4
		C490.2,377,488.2,374.7,488.2,372z"/>
	<path class="st3" d="M507.6,436.2c-9.2,0-15.5-6.2-15.5-17.9c0-12.8,11-31.7,27.7-31.7c9.2,0,15.5,6.2,15.5,17.8
		C535.3,417.3,524.2,436.2,507.6,436.2z M519.9,390.7c-10.7,0-19.8,21.9-19.8,31.7c0,6.2,2.7,9.8,7.4,9.8c10.8,0,19.8-22,19.8-31.9
		C527.3,394.3,524.4,390.7,519.9,390.7z"/>
	<path class="st3" d="M551.9,394.1c-3.8,0.5-8.4,2.1-13.5,5.3L538,399c6.7-7.4,14.1-11.6,22.6-11.6h0.8c1.3,0,1.7,0.8,1.3,1.8
		l-7.8,19.6c11.5-16.1,18.9-22,26.5-22c5.8,0,8.4,4.8,5.2,11.9l-13.5,29c-0.4,0.9-0.2,1.3,0.7,1.3c1.8,0,5.4-1.4,13.1-7.4l0.4,0.3
		c-6.7,9.8-12.9,14.1-19.6,14.1c-4.7,0-6.3-2.8-4.6-6.5l14.5-30.8c1.5-3.3,0.7-4.7-1.7-4.7c-3.9,0-9.2,3.8-23.9,22.2l-7.5,18.7h-8.8
		L551.9,394.1z"/>
</g>
<path class="st4" d="M87.6,490l-2.1,0.4c-2.7,0.6-4.6,2.1-6.1,5.5l-27.1,62.3h-8.7l-28-64c-1.1-2.3-1.8-3.1-4.2-3.6L8,490.1v-3.7
	h33.4v3.7l-4.1,0.6c-3.6,0.5-4.1,1.9-2.6,5.4L53,540.5c0.3,0.8,1,0.8,1.4,0l18.5-43.7c1.6-3.7,0.8-5.8-3.3-6.4l-3.2-0.4v-3.7h21.1
	L87.6,490L87.6,490z M74.8,533.8c0-15.4,10.3-26.6,23.9-26.6c12.3,0,20.6,7.9,21.6,21.5h-31v0.3c0,13.6,6.7,20.9,15.6,20.9
	c5.5,0,10.5-2.3,14.3-7.4l0.5,0.3c-3.1,10.2-10.9,16-21.2,16C85.1,559,74.8,548.8,74.8,533.8z M89.6,524.4h15c1.2,0,1.6-0.4,1.6-1.6
	c0-7.1-3.3-11.1-7.7-11.1C94.4,511.7,90.6,516.1,89.6,524.4z M144.4,553.5l3.9,0.6v3.5h-26.8v-3.5l4.5-0.6c1.5-0.2,1.7-0.7,1.7-2.1
	v-32.2c0-1.6-0.2-2-1.6-2.8l-4.6-2.3v-1.8l21.2-4.9v8.5c3.5-5.2,9.3-8.3,15.7-8.3c9.3,0,15.8,6,15.8,16.4v27.5
	c0,1.5,0.3,1.9,1.6,2.1l4.4,0.6v3.5h-26.7v-3.5l4-0.6c1.5-0.2,1.6-0.7,1.6-2.1v-26.9c0-6.5-3.2-9.7-7.8-9.7c-3.5,0-6.4,1.6-8.6,4.5
	v32.2C142.7,552.8,143.1,553.3,144.4,553.5z M184.9,543.3V514h-7V512c7.7-4.9,15.5-11.7,21.6-19h0.5v15.7l14.2-0.1v5.6l-14.2-0.1
	V542c0,6.4,3,9.5,7.6,9.5c2.8,0,5.3-1.4,7.4-3.8l0.5,0.2c-2,6.9-7.9,11.1-15.5,11.1C190.8,559,184.9,553.1,184.9,543.3z
	 M239.3,553.5l5.2,0.6v3.5h-28.2v-3.5l4.5-0.6c1.5-0.2,1.7-0.7,1.7-2.1v-32.2c0-1.6-0.2-2-1.6-2.8l-4.6-2.3v-1.8l21.2-4.9v10.1
	c3-6.2,8.1-10,14.2-10c6.1,0,11,4.1,11,9.6c0,4.2-2.6,6.6-6.2,6.6c-2.6,0-4.5-1.4-6.1-4.3c-1.6-2.7-3-3.8-5.2-3.8
	c-3.2,0-6,2.3-7.8,7.9v27.9C237.5,552.9,238,553.4,239.3,553.5z M264.2,554.1l4.5-0.6c1.4-0.2,1.7-0.7,1.7-2.1v-32.2
	c0-1.6-0.2-2-1.6-2.8l-4.6-2.3v-1.8l21.2-4.9v44.1c0,1.5,0.3,1.9,1.7,2.1l4.4,0.6v3.5h-27.3L264.2,554.1L264.2,554.1z M316.8,516.2
	c3.8-5.5,9.8-8.7,16.2-8.7c11.3,0,20.2,9.3,20.2,24.6c0,16.7-9.3,26.8-22,26.8c-5.8,0-10.9-2.2-14.3-6.2v20.2c0,1.4,0.4,1.9,1.7,2.1
	l4.4,0.5v3.5h-27.2v-3.5l4.4-0.5c1.5-0.2,1.7-0.8,1.7-2.1v-53.6c0-1.6-0.2-2-1.6-2.8l-4.5-2.3v-1.8l4.5-1.2c6.8-1.7,10-5.3,10-10.2
	c0-9.7-7.9-17.4-18.8-17.4c-5,0-7.3,1.2-7.3,4.1c0,2.6,1.6,4.6,1.6,6.8c0,3.6-3.3,6.7-7.9,6.7c-5,0-8-3.7-8-7.7
	c0-7.9,7.7-14.4,21-14.4c15,0,26.1,8.2,26.1,24L316.8,516.2L316.8,516.2z M316.8,520v27.9c2.2,2.8,5.4,4.3,9,4.3
	c7,0,12.2-6.6,12.2-18.5c0-12.1-5.2-18.3-12-18.3C322.4,515.2,319.2,516.8,316.8,520z M383.4,559.1c-14.7,0-26.5-10.1-26.5-25.4
	c0-15.8,11.1-26.5,26.8-26.5c14.8,0,26.5,10,26.5,25.3C410.1,548.4,399,559.1,383.4,559.1z M383.3,511.8c-5.9,0-10.6,6.5-10.6,21
	c0,14.8,4.9,21.9,11.1,21.9c5.9,0,10.5-6.5,10.5-21.2C394.3,518.7,389.4,511.8,383.3,511.8z M416.6,543.3V514h-7V512
	c7.7-4.9,15.5-11.7,21.6-19h0.5v15.7l14.2-0.1v5.6l-14.2-0.1V542c0,6.4,3,9.5,7.6,9.5c2.8,0,5.3-1.4,7.4-3.8l0.5,0.2
	c-2,6.9-7.9,11.1-15.5,11.1C422.5,559,416.6,553.1,416.6,543.3z M447.4,533.8c0-15.4,10.3-26.6,23.9-26.6c12.3,0,20.6,7.9,21.6,21.5
	H462v0.3c0,13.6,6.7,20.9,15.6,20.9c5.5,0,10.5-2.3,14.3-7.4l0.5,0.3c-3,10.2-10.9,16-21.2,16C457.6,559,447.4,548.8,447.4,533.8z
	 M462.3,524.4h15c1.2,0,1.6-0.4,1.6-1.6c0-7.1-3.3-11.1-7.7-11.1C466.9,511.7,463.2,516.1,462.3,524.4z M517,553.5l3.9,0.6v3.5H494
	v-3.5l4.5-0.6c1.5-0.2,1.7-0.7,1.7-2.1v-32.2c0-1.6-0.2-2-1.6-2.8l-4.6-2.3v-1.8l21.2-4.9v8.5c3.5-5.2,9.3-8.3,15.7-8.3
	c9.3,0,15.8,6,15.8,16.4v27.5c0,1.5,0.3,1.9,1.6,2.1l4.4,0.6v3.5h-26.7v-3.5l4-0.6c1.5-0.2,1.6-0.7,1.6-2.1v-26.9
	c0-6.5-3.2-9.7-7.8-9.7c-3.5,0-6.4,1.6-8.6,4.5v32.2C515.3,552.8,515.7,553.3,517,553.5z M557.5,543.3V514h-7V512
	c7.7-4.9,15.5-11.7,21.6-19h0.5v15.7l14.2-0.1v5.6l-14.2-0.1V542c0,6.4,3,9.5,7.6,9.5c2.8,0,5.3-1.4,7.4-3.8l0.5,0.2
	c-2,6.9-7.9,11.1-15.5,11.1C563.4,559,557.5,553.1,557.5,543.3z"/>
<path class="st5" d="M28,646.6l-7.2-35.4c-0.6-2.7-1.1-3.3-3.2-3.7l-2.3-0.4l1.5-3.6h30.3l-1.5,3.6l-4.1,0.7
	c-4.2,0.7-4.7,1.4-4.2,4.6l5.1,27c0.2,0.9,0.7,0.9,1.4,0.3l25-25.9c3.6-3.8,3.4-5.8-0.4-6.3l-3.8-0.5l1.5-3.6h22.5l-1.5,3.6
	l-1.4,0.3c-3.2,0.7-5.5,2.1-9.1,5.7l-31.9,32.8L37,666.3c-0.7,1.7-0.3,2.3,1.3,2.5l7.3,0.8l-1.5,3.6H8l1.5-3.6l8.1-0.9
	c1.7-0.2,2.2-0.7,2.7-2.2L28,646.6z M75.2,674.7c-9.6,0-15.6-6-15.6-15.5c0-17.7,15.3-35.3,32-35.3c8.4,0,13.4,3.5,13.4,8.6
	c0,8.2-10.1,15.5-30.3,18.9c-0.3,1.8-0.5,3.6-0.5,5.3c0,6.8,2.7,9.5,7.8,9.5c5.4,0,10.8-2.8,17.1-9.2l0.5,0.3
	C93.9,668.7,86,674.7,75.2,674.7z M89.4,628c-4.9,0-11.5,9.6-14.1,19.7C87,645,92.7,639,92.7,632.4C92.6,629.6,91.5,628,89.4,628z
	 M101.4,664.2c0-3.3,2.3-5.8,5.5-5.8c2.9,0,4.8,1.8,5.9,5.7c1.2,4.6,2.8,6.3,6.5,6.3c3.9,0,6.5-2.3,6.5-5.8c0-2.8-1.2-4.9-3.9-7.8
	l-6.4-6.8c-3.5-3.7-4.8-6.4-4.8-10.5c0-8.5,7.2-15.5,17.1-15.5c1.7,0,3.3,0.2,4.7,0.4c-0.2-0.9-0.3-2-0.3-2.9
	c0-12.9,11.9-22.1,25.1-22.1c11.9,0,19.8,6.4,19.8,14.9c0,2.8-0.7,6.2-2.2,9.8l-0.5,1.3l14.1-0.2l-2.2,5.5l-14.2-0.1l-11.7,27.9
	c-2.2,5.1-0.6,7.8,2.8,7.8c3.4,0,8-2,13.3-6.8l0.5,0.3c-5.4,9.8-12.1,14.8-21,14.8c-9.5,0-13.9-6.8-9.6-17.3l11.3-26.7h-6.7l0.8-1.9
	c3.5-1.8,6.2-3.6,9.9-5.7c4.7-2.6,7.7-5.7,7.7-9.9c0-4.7-5.4-8-11.7-8c-10.6,0-19.9,6.5-19.9,17.1c0,1.6,0.3,3.3,1.1,4.7
	c2.9,1.9,4.7,4.5,4.7,7.4c0,3.3-2.2,5.5-5.3,5.5c-2.8,0-4.7-1.6-5.9-5.5c-1.2-4.2-2.8-6.2-5.9-6.2c-3.2,0-5.2,2.4-5.2,4.9
	c0,2.5,0.9,4,3.3,6.4l7.1,7.5c3.6,3.8,5.2,6.4,5.2,10.7c0,9.9-7.7,16.8-18.8,16.8C107.7,674.5,101.4,670.2,101.4,664.2z
	 M197.7,674.7c-9.6,0-15.6-6-15.6-15.5c0-17.7,15.3-35.3,32-35.3c8.4,0,13.4,3.5,13.4,8.6c0,8.2-10.1,15.5-30.3,18.9
	c-0.3,1.8-0.5,3.6-0.5,5.3c0,6.8,2.7,9.5,7.8,9.5c5.4,0,10.8-2.8,17.1-9.2l0.5,0.3C216.5,668.7,208.6,674.7,197.7,674.7z M211.9,628
	c-4.9,0-11.5,9.6-14.1,19.7c11.7-2.7,17.4-8.7,17.4-15.3C215.2,629.6,214,628,211.9,628z M240.4,633.4c-3.1,0.3-7.1,1.2-11.2,3.4
	l-0.3-0.5c5.9-6.7,16.3-11.9,25.6-11.9h1.4c1.6,0,2,0.7,1.4,2.3l-5.5,13.7c8.3-12.8,13.6-16.1,19.4-16.1c4.8,0,8.5,3.2,8.5,7.8
	c0,4.3-2.6,7.4-6.1,7.4c-2.9,0-4.9-1.3-6.5-4.1c-1.1-1.8-1.8-2.7-3.4-2.7c-2.4,0-6,1.4-16.1,18.4l-8.7,22.1h-14.2L240.4,633.4z
	 M291.6,633.4c-3.1,0.3-7.1,1.2-11.2,3.4l-0.3-0.5c5.9-6.7,16.3-11.9,25.6-11.9h1.4c1.6,0,2,0.7,1.4,2.3l-6.7,17.2
	c10.8-14.8,18.8-20.1,26.2-20.1c6.8,0,9.9,4.7,6,13.4l-12.5,26.6c-0.7,1.4-0.2,2,0.9,2c2.1,0,5.5-2,10.2-5.5l0.5,0.5
	c-5.9,8.4-14.2,13.6-21.8,13.6c-5.6,0-7.6-3.3-5.2-8.4l13.9-29.7c1.1-2.4,0.6-3.7-1.1-3.7c-2.7,0-7.5,3.4-20.4,19l-8.4,21.5h-14.2
	L291.6,633.4z M352.8,665.6c2.1,0,5.4-1.8,10.1-5.3l0.5,0.5c-5.9,8.4-14.2,13.4-21.8,13.4c-5.6,0-7.6-2.8-5.3-8.1l13.9-32.5
	c-3.1,0.3-7,1.2-11.1,3.4l-0.3-0.5c5.9-6.7,16.5-11.9,25.9-11.9h1.4c1.6,0,2.1,0.7,1.4,2.3l-15.7,36.9
	C351.2,664.9,351.5,665.6,352.8,665.6z M358.7,610.8c0-4.9,4-9.1,8.7-9.1c3.9,0,7.2,2.7,7.2,7.2c0,4.9-4,9.1-8.7,9.1
	C362,617.9,358.7,615.3,358.7,610.8z M374.4,661.8c0,1.7,1.5,2.6,4.7,2.4l18.8-1.4c10.4-0.8,15.7,3.4,15.7,11.3
	c0,11.6-13.3,21-29.2,21c-15.5,0-21.1-6-21.1-11.3c0-3.4,2.5-5.2,5.2-5.2c2.7,0,4.3,2,4.6,4.4c0.1,0.6,0.1,1.5,0.2,2.1
	c0.5,3.1,3.1,5.8,11.9,5.8c11.2,0,18.3-5.8,18.3-11.3c0-3.1-2.2-4.8-8-4.5l-17.5,1.3c-9.1,0.7-14.3-2.8-14.3-9.5
	c0-6.3,5.9-11.7,17.9-12.5c-4.2-2.2-7.2-5.9-7.2-11.7c0-10,9.1-18.6,23.4-18.6c5.3,0,9.5,1.1,12.4,2.7c1.8-7.3,6.8-12.1,13.1-12.1
	c3.8,0,6.3,2,6.3,5.1c0,2.8-2.2,5.1-5.5,5.1c-1.8,0-3.7-0.8-5.3-0.8c-2.7,0-4.8,1.6-5.8,5.1c2.4,2.4,3.5,5.5,3.5,8.8
	c0,10-9.3,18.8-25.2,18.8C378.7,657,374.4,659,374.4,661.8z M392.3,653.3c5.9,0,11.4-9.8,11.4-19.9c0-4.2-2.1-5.9-4.4-5.9
	c-6.7,0-11.4,11.7-11.4,19.2C387.9,651.2,389.5,653.3,392.3,653.3z M415.6,673.1l25-63c0.6-1.6,0.6-2.4-0.7-3.1l-3.4-1.7l0.8-1.8
	l22-4.7l-17.8,45.1c10.8-14.8,18.8-20.1,26.2-20.1c6.8,0,9.9,4.7,6,13.4l-12.5,26.6c-0.7,1.4-0.2,2,0.9,2c2.1,0,5.5-2,10.2-5.5
	l0.5,0.5c-5.9,8.4-14.2,13.6-21.8,13.6c-5.6,0-7.6-3.3-5.2-8.4l13.9-29.7c1.1-2.4,0.6-3.7-1.1-3.7c-2.7,0-7.5,3.4-20.4,19l-8.4,21.5
	L415.6,673.1L415.6,673.1z M477.8,657.1l11.3-26.7h-6.8l0.8-1.9c9.4-4.8,19.5-11.5,28.6-18.7h0.5l-6.5,15.5l14.2-0.2l-2.2,5.5
	l-14.2-0.1l-11.7,27.9c-2.1,5.1-0.6,7.8,2.8,7.8c3.4,0,8-2,13.3-6.8l0.5,0.3c-5.4,9.8-12.1,14.8-21,14.8
	C477.9,674.5,473.5,667.5,477.8,657.1z M525.9,665.7c2.1,0,5.5-2,10.2-5.5l0.5,0.5c-6,8.5-14.2,13.6-21.8,13.6
	c-5.5,0-7.4-3.1-5.2-8.4l22.2-55.8c0.6-1.6,0.6-2.4-0.7-3.1l-3.4-1.7l0.8-1.8l22-4.7l-25.6,65C524.2,665.4,524.6,665.7,525.9,665.7z
	 M574.6,630.7c0-4,2.7-6.6,6.4-6.6c4.2,0,6.9,3,6.9,8.6c0,13.5-12.2,29.9-25.2,42.5c-13.9,13.6-24.2,19.7-33.9,19.7
	c-5.6,0-8.3-2.7-8.3-6.7c0-3.5,2.7-6,6.3-6c5.3,0,5.7,4.7,10.2,4.7c2.7,0,5.8-0.8,10.2-3.7l1.3-50.6c-3.5,0.7-6.9,2.2-9.8,3.8
	l-0.3-0.5c4.9-6.3,14.5-11.6,21.3-11.6h0.8c1.6,0,2,0.6,1.9,2.2l-1.5,44.9c11.5-11.5,18.2-22,18.2-27.9
	C579.4,638.4,574.6,636.2,574.6,630.7z"/>
</svg>
